<svg width="10" height="6" viewBox="0 0 10 6" fill="none" xmlns="http://www.w3.org/2000/svg">
<path d="M9.99996 0.864575C9.81521 1.07347 9.64356 1.29446 9.44377 1.48883C8.19624 2.70239 6.94342 3.9103 5.69088 5.11875C5.16283 5.62821 4.83765 5.62633 4.30431 5.11176C3.00551 3.85922 1.70726 2.60561 0.410973 1.35064C0.301463 1.24445 0.189723 1.13369 0.10975 1.00706C-0.0694238 0.72397 -0.0245607 0.44276 0.210343 0.213705C0.458344 -0.0282539 0.761796 -0.0583644 1.06469 0.119072C1.19594 0.195962 1.30823 0.306725 1.4183 0.412381C2.50616 1.45979 3.59179 2.50963 4.67881 3.55812C4.77774 3.65356 4.88251 3.74335 5.03995 3.88584C5.29352 3.62157 5.52341 3.36778 5.76918 3.12878C6.71437 2.21014 7.66346 1.29526 8.61283 0.380926C9.17348 -0.158912 9.56136 -0.127726 10.0002 0.487388C9.99996 0.613207 9.99996 0.738757 9.99996 0.864575Z" fill="#AFAFAF"/>
</svg>
