<svg width="6" height="9" viewBox="0 0 6 9" fill="none" xmlns="http://www.w3.org/2000/svg">
<path d="M1.48567 3.52516e-05C1.67558 0.166307 1.87649 0.320792 2.0532 0.500606C3.15649 1.62338 4.25464 2.75092 5.35328 3.87821C5.81644 4.35345 5.81473 4.64612 5.34692 5.12613C4.2082 6.29504 3.0685 7.46346 1.92757 8.63012C1.83103 8.72868 1.73033 8.82925 1.61521 8.90123C1.35785 9.06248 1.10219 9.0221 0.893948 8.81069C0.673976 8.58749 0.646602 8.31438 0.807915 8.04178C0.877817 7.92366 0.978516 7.82259 1.07457 7.72353C2.02681 6.74446 2.98124 5.76739 3.93445 4.78907C4.02122 4.70004 4.10286 4.60574 4.23239 4.46405C3.99214 4.23583 3.76141 4.02893 3.54413 3.80774C2.70896 2.95707 1.87722 2.10289 1.04597 1.24845C0.555191 0.74387 0.583543 0.394774 1.14276 -0.00021555C1.25715 3.52616e-05 1.37129 3.52566e-05 1.48567 3.52516e-05Z" fill="#9A9A9A"/>
</svg>
