<svg width="11" height="6" viewBox="0 0 11 6" fill="none" xmlns="http://www.w3.org/2000/svg">
<path d="M10.7558 0.867505C10.5711 1.0764 10.3994 1.29739 10.1996 1.49176C8.9521 2.70532 7.69928 3.91323 6.44674 5.12168C5.91869 5.63114 5.59351 5.62926 5.06016 5.11469C3.76137 3.86215 2.46312 2.60854 1.16683 1.35357C1.05732 1.24738 0.945582 1.13662 0.865609 1.00999C0.686436 0.7269 0.731299 0.44569 0.966203 0.216635C1.2142 -0.0253242 1.51766 -0.0554347 1.82055 0.122002C1.9518 0.198891 2.06409 0.309655 2.17416 0.41531C3.26202 1.46272 4.34765 2.51256 5.43467 3.56105C5.5336 3.65649 5.63837 3.74628 5.79581 3.88877C6.04938 3.6245 6.27927 3.37071 6.52504 3.13171C7.47023 2.21307 8.41932 1.29819 9.36869 0.383856C9.92934 -0.155982 10.3172 -0.124796 10.7561 0.490318C10.7558 0.616136 10.7558 0.741686 10.7558 0.867505Z" fill="#AFAFAF"/>
</svg>
