<svg width="14" height="12" viewBox="0 0 14 12" fill="none" xmlns="http://www.w3.org/2000/svg">
<path d="M13.9996 1.88749C13.741 2.34327 13.5007 2.82545 13.221 3.24956C11.4745 5.89744 9.72056 8.533 7.96704 11.1697C7.22779 12.2813 6.77254 12.2772 6.02588 11.1545C4.20761 8.42155 2.39011 5.68627 0.575348 2.94805C0.422038 2.71635 0.265606 2.47467 0.153646 2.19839C-0.0971909 1.5807 -0.0343842 0.967128 0.294474 0.467351C0.641666 -0.0605822 1.06649 -0.126281 1.49053 0.260871C1.67427 0.428636 1.83148 0.670312 1.98557 0.900843C3.50854 3.18621 5.02839 5.47685 6.55018 7.76456C6.68867 7.97281 6.83535 8.16873 7.05576 8.47962C7.41075 7.903 7.73259 7.34926 8.07666 6.82778C9.39989 4.82339 10.7286 2.82721 12.0577 0.832212C12.8426 -0.345666 13.3856 -0.277621 14 1.0645C13.9996 1.33903 13.9996 1.61297 13.9996 1.88749Z" fill="#FF1C9B"/>
</svg>
