<svg width="10" height="8" viewBox="0 0 10 8" fill="none" xmlns="http://www.w3.org/2000/svg">
<path d="M9.99996 1.41031C9.81521 1.70276 9.64356 2.01214 9.44377 2.28426C8.19624 3.98325 6.94342 5.67433 5.69088 7.36616C5.16283 8.0794 4.83765 8.07677 4.30431 7.35637C3.00551 5.60282 1.70726 3.84775 0.410973 2.0908C0.301463 1.94213 0.189723 1.78707 0.10975 1.60979C-0.0694238 1.21346 -0.0245607 0.819766 0.210343 0.49909C0.458344 0.160347 0.761796 0.118192 1.06469 0.366604C1.19594 0.474249 1.30823 0.629317 1.4183 0.777235C2.50616 2.24362 3.59179 3.71338 4.67881 5.18127C4.77774 5.31488 4.88251 5.44059 5.03995 5.64008C5.29352 5.27009 5.52341 4.91479 5.76918 4.58019C6.71437 3.29409 7.66346 2.01327 8.61283 0.733199C9.17348 -0.0225743 9.56136 0.0210859 10.0002 0.882245C9.99996 1.05839 9.99996 1.23416 9.99996 1.41031Z" fill="#FF1C9B"/>
</svg>
