<svg width="20" height="20" viewBox="0 0 20 20" fill="none" xmlns="http://www.w3.org/2000/svg">
<path d="M19.9998 18.3742C19.9032 18.6302 19.8448 18.91 19.7039 19.138C19.2597 19.8575 18.576 20.0617 17.7784 19.9752C17.2837 19.9213 16.8849 19.6875 16.5373 19.3344C14.413 17.1802 12.2846 15.0303 10.1582 12.8788C10.1034 12.8234 10.0559 12.7601 9.99223 12.6851C9.91655 12.7579 9.86122 12.8097 9.80747 12.8635C7.6477 15.0472 5.48898 17.2309 3.32922 19.4146C2.68411 20.0665 1.56143 20.1921 0.785831 19.6996C-0.0951939 19.1401 -0.267954 17.801 0.433525 16.9559C0.500333 16.8751 0.573404 16.7997 0.646997 16.7252C2.81041 14.5363 4.97435 12.3478 7.13934 10.1604C7.18944 10.1097 7.25051 10.0707 7.31679 10.0179C7.24164 9.93661 7.19571 9.88436 7.14664 9.83474C4.9827 7.64577 2.81824 5.45785 0.654826 3.26888C-0.047698 2.55787 -0.0978036 1.45309 0.535303 0.687715C1.16789 -0.0760762 2.26238 -0.224401 3.06982 0.347255C3.17055 0.418514 3.26189 0.504553 3.34957 0.592175C5.49316 2.74525 7.63517 4.89992 9.77719 7.05458C9.84191 7.1195 9.90141 7.18918 9.98023 7.27469C10.047 7.21082 10.1024 7.16068 10.1551 7.10736C12.2867 4.95165 14.4167 2.79382 16.5509 0.640209C17.602 -0.420759 19.326 -0.0111513 19.7357 1.40295C19.9419 2.11395 19.7942 2.76003 19.2675 3.29369C17.1328 5.45574 14.9955 7.61568 12.8587 9.77509C12.8039 9.83052 12.7392 9.87644 12.6619 9.94136C12.735 10.0195 12.7851 10.0754 12.8383 10.1293C14.9621 12.2649 17.0827 14.4043 19.2143 16.532C19.5953 16.9121 19.8897 17.3254 19.9998 17.8601C19.9998 18.0316 19.9998 18.2027 19.9998 18.3742Z" fill="#9A9A9A"/>
</svg>
