<svg width="26" height="30" viewBox="0 0 26 30" fill="none" xmlns="http://www.w3.org/2000/svg">
<path d="M0 16.4207C0 15.9113 0 15.4013 0 14.8919C0.0158963 14.8019 0.034336 14.7125 0.0464172 14.6225C0.108095 14.1521 0.144338 13.6765 0.232722 13.2105C0.724872 10.6119 1.90311 8.36631 3.75534 6.489C5.69724 4.52042 8.03081 3.28143 10.7567 2.80971C11.2463 2.72482 11.7423 2.67503 12.2351 2.60864C12.7425 2.60864 13.2505 2.60864 13.7579 2.60864C13.8317 2.62332 13.9055 2.6412 13.9792 2.65269C14.6882 2.76312 15.4086 2.82248 16.1042 2.98972C22.7743 4.59319 27.0714 11.3211 25.766 18.0937C25.2236 20.9093 23.9131 23.3094 21.8034 25.2378C18.7932 27.989 15.2363 29.0863 11.2063 28.5724C8.63933 28.2449 6.37696 27.1872 4.43761 25.4676C2.15363 23.4422 0.724236 20.9221 0.199022 17.9003C0.114453 17.4107 0.0654928 16.9141 0 16.4207ZM9.8519 17.1324C7.10183 15.0132 7.05542 11.2777 9.15755 9.09655C11.1707 7.00732 14.4764 6.88221 16.6727 8.92612C18.7284 10.8392 19.1703 14.8459 16.1494 17.142C17.4878 17.6079 18.675 18.3069 19.707 19.2612C20.7364 20.2136 21.5261 21.3409 22.0978 22.6386C25.5663 18.1371 25.3304 11.36 20.7046 7.13818C16.1386 2.97121 9.14483 3.16781 4.85282 7.55245C0.422842 12.0782 0.750306 18.6542 3.89714 22.6245C5.1078 19.9614 7.08594 18.1352 9.8519 17.1324ZM13.0947 27.1809C13.3828 27.1636 13.7815 27.1566 14.1757 27.1132C16.7305 26.8311 18.949 25.8072 20.8292 24.0493C20.8846 23.9975 20.9234 23.8667 20.8992 23.7978C20.2207 21.8764 19.0222 20.3617 17.2659 19.3435C14.6704 17.839 11.9782 17.7318 9.28154 19.0416C7.25126 20.0278 5.86764 21.6409 5.10271 23.7767C5.07537 23.8526 5.10844 23.9963 5.1663 24.0505C7.37144 26.1008 9.98288 27.133 13.0947 27.1809ZM16.8037 12.8027C16.8043 10.6994 15.0862 8.97655 12.9911 8.98038C10.9055 8.98357 9.1976 10.6943 9.18997 12.7886C9.18171 14.8912 10.8941 16.6192 12.9898 16.6236C15.0843 16.6281 16.803 14.9059 16.8037 12.8027Z" fill="#757575"/>
</svg>
