<svg width="36" height="26" viewBox="0 0 36 26" fill="none" xmlns="http://www.w3.org/2000/svg">
<path d="M3 22.3344C3.22699 21.8483 3.6121 21.6897 4.14984 21.6904C10.4078 21.702 16.6666 21.6981 22.9246 21.6981C23.4553 21.6981 23.7817 21.8953 23.9163 22.2935C24.094 22.8173 23.7285 23.368 23.1618 23.4235C23.0553 23.4343 22.9473 23.4274 22.8401 23.4274C16.6204 23.4274 10.4016 23.4227 4.18193 23.4351C3.63793 23.4358 3.23639 23.2918 3 22.795C3 22.6417 3 22.4884 3 22.3344Z" fill="#757575"/>
<path d="M3 18.645C3.22621 18.1597 3.61054 17.9979 4.14828 18.001C6.95752 18.018 9.76677 18.0087 12.576 18.0103C12.7114 18.0103 12.8523 18.0072 12.9823 18.038C13.4128 18.1389 13.7039 18.5471 13.6554 18.9592C13.6045 19.3983 13.2453 19.7302 12.7834 19.7364C12.0907 19.7464 11.398 19.7395 10.7061 19.7395C8.53083 19.7395 6.3556 19.7279 4.18037 19.748C3.63637 19.7533 3.2356 19.6031 3 19.1071C3 18.9523 3 18.7982 3 18.645Z" fill="#757575"/>
<path d="M3 14.9547C3.22621 14.4695 3.61054 14.3031 4.14749 14.3108C5.75602 14.3331 7.36533 14.3154 8.97464 14.3208C9.64858 14.3231 10.0822 14.9077 9.84818 15.4901C9.70493 15.8459 9.42315 16.0439 9.03648 16.0454C7.31993 16.0523 5.60417 16.0493 3.88763 16.0485C3.43833 16.0485 3.19021 15.7712 3 15.4169C3 15.2621 3 15.108 3 14.9547Z" fill="#757575"/>
<path d="M3 11.2647C3.22621 10.7794 3.60975 10.6084 4.14749 10.6207C5.26837 10.6469 6.38926 10.6269 7.51092 10.6292C8.1058 10.63 8.50421 10.9789 8.505 11.4911C8.50578 12.0026 8.10345 12.3569 7.51405 12.3577C6.40256 12.3592 5.29107 12.3392 4.18037 12.3661C3.63558 12.3792 3.23639 12.2206 3 11.726C3 11.572 3 11.4187 3 11.2647Z" fill="#757575"/>
<path d="M26.1627 9.68314C26.1385 10.6652 25.9632 11.6149 25.5796 12.52C25.4959 12.7172 25.5373 12.8227 25.6798 12.9621C27.8308 15.0711 29.9786 17.1839 32.1217 19.3005C33.1949 20.3604 33.2927 21.8986 32.3699 23.0055C31.3656 24.2094 29.5559 24.3503 28.3889 23.2681C27.3235 22.2799 26.3076 21.24 25.2712 20.2218C24.1175 19.0879 22.9613 17.9564 21.817 16.8134C21.6644 16.6616 21.5509 16.6632 21.3677 16.7379C16.7425 18.615 11.6171 15.8752 10.6943 11.0365C9.89041 6.82704 12.8531 2.73006 17.162 2.08921C21.4812 1.44682 25.4489 4.34143 26.0696 8.59324C26.1228 8.95371 26.133 9.31958 26.1627 9.68314ZM18.3573 15.5987C21.6933 15.6002 24.3875 12.9483 24.3867 9.66389C24.3859 6.38338 21.6878 3.72292 18.3588 3.71984C15.04 3.71676 12.3247 6.39031 12.3239 9.66235C12.3232 12.9405 15.0236 15.5979 18.3573 15.5987ZM23.2298 15.7527C23.2431 15.7674 23.2807 15.8105 23.3214 15.8506C25.3761 17.874 27.4308 19.8967 29.4855 21.9194C29.527 21.9602 29.5684 22.0011 29.6138 22.0373C30.168 22.4832 30.986 22.2391 31.1942 21.5628C31.3257 21.1361 31.1668 20.7995 30.8615 20.4991C28.8115 18.4848 26.7647 16.4683 24.7162 14.4526C24.6708 14.4079 24.6208 14.3671 24.5722 14.3239C24.5973 14.3594 24.6215 14.3948 24.6466 14.4302C24.1816 14.8646 23.7167 15.2983 23.2298 15.7527Z" fill="#757575"/>
</svg>
