<svg width="11" height="12" viewBox="0 0 11 12" fill="none" xmlns="http://www.w3.org/2000/svg">
<path d="M2.85741 9.73571C2.85741 9.61841 2.85741 9.55218 2.85741 9.48652C2.85741 6.56302 2.85688 3.63953 2.85848 0.716038C2.85848 0.61726 2.86276 0.514554 2.88899 0.420827C2.96659 0.143014 3.22188 -0.0281642 3.49216 0.00382638C3.75762 0.0352557 3.9733 0.267609 3.99685 0.551034C4.00167 0.606597 3.99953 0.663282 3.99953 0.719406C3.99953 4.2423 3.99953 7.76576 3.99899 11.2887C3.99899 11.3633 4.00274 11.4407 3.98775 11.5126C3.93691 11.7517 3.7999 11.9144 3.57137 11.9773C3.33481 12.043 3.13572 11.9638 2.98104 11.7708C2.62085 11.3218 2.26495 10.8694 1.90743 10.4182C1.32139 9.67902 0.734278 8.94099 0.150376 8.20072C-0.0208875 7.98352 -0.0471123 7.72591 0.0781242 7.50422C0.201755 7.2859 0.389075 7.18151 0.630985 7.20396C0.82098 7.22136 0.95478 7.33865 1.07306 7.48907C1.61843 8.1822 2.16754 8.87196 2.71558 9.56284C2.74984 9.60662 2.7857 9.64871 2.85741 9.73571Z" fill="#757575"/>
<path d="M7.74585 2.26038C7.74585 2.3833 7.74585 2.44953 7.74585 2.51632C7.74585 5.43381 7.74585 8.35073 7.74531 11.2682C7.74531 11.349 7.74906 11.4321 7.73458 11.5107C7.68042 11.8126 7.41284 12.0237 7.12488 11.9979C6.84442 11.9726 6.61974 11.7285 6.60311 11.4276C6.60043 11.3777 6.60204 11.3277 6.60204 11.2778C6.60204 7.76083 6.60204 4.24391 6.60258 0.726991C6.60258 0.646168 6.59829 0.562539 6.61491 0.484522C6.66585 0.245421 6.80528 0.084336 7.03372 0.022035C7.26376 -0.0408273 7.46057 0.0326991 7.61179 0.21848C7.91369 0.588918 8.20809 0.965531 8.5057 1.3399C9.15402 2.15542 9.80394 2.96983 10.449 3.7876C10.7418 4.1586 10.5944 4.67328 10.1664 4.78161C9.91334 4.84559 9.716 4.74008 9.55406 4.53521C9.00333 3.83811 8.44886 3.14326 7.89599 2.44785C7.85846 2.40014 7.81985 2.35243 7.74585 2.26038Z" fill="#757575"/>
</svg>
