<svg width="15" height="15" viewBox="0 0 15 15" fill="none" xmlns="http://www.w3.org/2000/svg">
<path d="M0.742188 4.26116C0.780338 4.16633 0.820047 4.03093 0.886227 3.91035C1.27942 3.19391 1.77693 2.55161 2.32934 1.95536C2.65518 1.60377 3.01295 1.2795 3.37694 0.966549C3.87407 0.53926 4.37587 0.795243 4.63319 1.148C5.28994 2.04745 5.89996 2.9789 6.36712 3.99542C6.43563 4.14448 6.48391 4.30408 6.53257 4.46134C6.61198 4.7181 6.56488 4.96121 6.39008 5.15905C6.22035 5.35142 6.02648 5.52234 5.83806 5.69716C5.70999 5.81617 5.57763 5.93168 5.43943 6.03821C5.35806 6.10064 5.35417 6.15878 5.38726 6.2497C5.85286 7.52689 6.63884 8.55823 7.74717 9.3414C8.21354 9.67074 8.7169 9.93024 9.25491 10.1238C9.34717 10.157 9.40206 10.1468 9.46513 10.0684C9.62669 9.8678 9.79447 9.67152 9.96771 9.48071C10.0849 9.35155 10.2075 9.22472 10.3414 9.1139C10.5408 8.94884 10.772 8.9024 11.0254 8.97225C11.5459 9.11585 12.0146 9.37418 12.4693 9.65279C13.0692 10.0204 13.6547 10.4129 14.2441 10.7977C14.4575 10.937 14.6089 11.1274 14.6949 11.3717C14.7658 11.5731 14.765 11.767 14.6451 11.9442C14.512 12.1408 14.38 12.3422 14.2196 12.5158C13.4908 13.3072 12.6542 13.967 11.7519 14.5508C11.3949 14.7818 11.0387 14.7709 10.6517 14.6928C9.37131 14.4341 8.21121 13.8909 7.12819 13.18C4.9384 11.7432 3.17022 9.89863 1.87776 7.60961C1.38764 6.74216 1.01664 5.82476 0.828611 4.84063C0.794742 4.66464 0.775278 4.48553 0.742188 4.26116ZM3.90404 1.70913C3.86706 1.73489 3.85421 1.74191 3.8437 1.75167C3.03475 2.48918 2.33168 3.31683 1.7419 4.24008C1.70959 4.29042 1.69946 4.36808 1.70803 4.42934C1.82248 5.26285 2.10706 6.0425 2.49557 6.78118C3.85655 9.36754 5.82444 11.3705 8.34902 12.8237C9.19029 13.308 10.0853 13.6677 11.0546 13.8063C11.1309 13.8172 11.2279 13.7934 11.2936 13.7516C11.9714 13.3189 12.5955 12.8163 13.1728 12.2567C13.3807 12.055 13.578 11.8423 13.7879 11.6269C13.7217 11.5754 13.6738 11.5352 13.6228 11.4981C12.7991 10.9011 11.927 10.3852 11.0099 9.94507C10.8911 9.88809 10.8269 9.90292 10.744 10.0013C10.4804 10.313 10.2052 10.6143 9.93773 10.9226C9.74503 11.145 9.5208 11.1797 9.24245 11.0978C8.19758 10.7903 7.28352 10.2529 6.48429 9.52285C5.50288 8.62652 4.80059 7.54718 4.41636 6.26492C4.33071 5.97967 4.3712 5.75218 4.59621 5.5559C4.75699 5.41542 4.91037 5.26597 5.06998 5.12393C5.21169 4.99789 5.35222 4.87029 5.50249 4.75517C5.61694 4.66737 5.62239 4.58582 5.5531 4.46407C5.17821 3.80577 4.81655 3.14006 4.43543 2.48567C4.27894 2.21759 4.08585 1.97214 3.90404 1.70913Z" fill="#757575"/>
</svg>
