<svg width="14" height="10" viewBox="0 0 14 10" fill="none" xmlns="http://www.w3.org/2000/svg">
<path d="M0 8.97431C0 6.32551 0 3.67617 0 1.02737C0.00576925 1.01601 0.015577 1.00465 0.0173077 0.992755C0.102116 0.421562 0.630579 -0.0106194 1.30731 0.00019869C1.84962 0.00885313 2.39193 0.0018214 2.93424 0.0018214C6.18809 0.0018214 9.44137 0.00128049 12.6952 0.0023623C13.4556 0.0023623 13.9968 0.488634 13.9973 1.18748C14.0014 3.72972 14.0014 6.27196 13.9933 8.81367C13.9927 8.99108 13.9466 9.1831 13.8652 9.34321C13.6322 9.80243 13.215 9.99986 12.6814 9.99986C8.89445 9.99932 5.10751 9.99986 1.32058 9.99986C1.28885 9.99986 1.25654 10.0004 1.22481 9.99932C0.830195 9.98256 0.504809 9.83922 0.256731 9.54551C0.114808 9.3762 0.0519232 9.17823 0 8.97431ZM1.40943 0.776394C3.29424 2.52784 5.15598 4.25872 6.99463 5.96744C8.85291 4.22627 10.6991 2.49646 12.5343 0.776394C8.85349 0.776394 5.1479 0.776394 1.40943 0.776394ZM1.43423 9.22097C5.14848 9.22097 8.85695 9.22097 12.5337 9.22097C11.2448 8.01259 9.9456 6.79393 8.63829 5.56825C8.22406 5.9577 7.79714 6.36067 7.36906 6.76202C7.13656 6.98001 6.9179 6.97946 6.68252 6.76094C6.27463 6.38231 5.86732 6.00259 5.46002 5.62396C5.42598 5.59205 5.39021 5.5623 5.36251 5.53796C4.0477 6.77122 2.74328 7.99366 1.43423 9.22097ZM0.825002 8.63354C2.1277 7.41219 3.43386 6.18812 4.74405 4.95919C3.45289 3.75893 2.14904 2.54677 0.825002 1.31567C0.825002 3.78327 0.825002 6.21625 0.825002 8.63354ZM9.30176 4.98191C10.5981 6.19732 11.8956 7.41381 13.1666 8.60542C13.1666 6.21355 13.1666 3.77948 13.1666 1.35786C11.8696 2.57435 10.5727 3.7903 9.30176 4.98191Z" fill="#757575"/>
</svg>
