<svg width="35" height="35" viewBox="0 0 35 35" fill="none" xmlns="http://www.w3.org/2000/svg">
<g clip-path="url(#clip0_917_96)">
<path d="M34.9997 27.783C34.5787 28.3061 34.164 28.8338 33.7339 29.3485C33.6051 29.5026 33.564 29.6502 33.5841 29.8486C33.6389 30.3864 33.6864 30.9252 33.711 31.4648C33.7384 32.0848 33.3347 32.3855 32.7584 32.1715C32.2689 31.9898 31.7894 31.7776 31.3108 31.5682C31.1308 31.4897 30.9719 31.4861 30.7893 31.5672C30.3317 31.7702 29.8695 31.9621 29.4037 32.1429C28.7489 32.3966 28.3388 32.1069 28.3744 31.4086C28.4 30.8919 28.4502 30.3762 28.5004 29.8615C28.5205 29.6557 28.4813 29.4925 28.3388 29.3301C27.999 28.9426 27.6748 28.5413 27.3533 28.1382C26.9331 27.6114 27.0884 27.1252 27.7387 26.9444C28.231 26.807 28.7269 26.6815 29.2256 26.569C29.4092 26.5274 29.5225 26.4453 29.6147 26.2802C29.8604 25.8401 30.1189 25.4075 30.3847 24.9803C30.771 24.3595 31.3163 24.3576 31.6999 24.9757C31.9711 25.413 32.2287 25.8604 32.4872 26.306C32.5657 26.4416 32.6579 26.5219 32.8242 26.557C33.2799 26.6529 33.7266 26.7894 34.1814 26.8891C34.554 26.9712 34.8509 27.1354 35.0007 27.5081C34.9997 27.5985 34.9997 27.6908 34.9997 27.783ZM30.7071 26.4684C30.4002 27.1132 29.959 27.5395 29.2064 27.6548C28.4173 27.7756 28.3954 27.8522 28.9471 28.4389C29.4485 28.9712 29.6321 29.5497 29.4896 30.2609C29.4439 30.486 29.464 30.725 29.4512 31.01C29.9042 30.8145 30.2988 30.6438 30.6934 30.4731C31.0002 30.4547 31.3053 30.4316 31.5985 30.5654C31.857 30.6825 32.1246 30.7803 32.3821 30.8993C32.5703 30.986 32.6762 31.0137 32.6333 30.7314C32.5885 30.4371 32.5858 30.1364 32.5557 29.8393C32.5136 29.4297 32.6041 29.069 32.8872 28.759C33.0872 28.5395 33.2544 28.2895 33.4589 28.0745C33.6663 27.8559 33.5813 27.7932 33.3402 27.7461C33.0616 27.6917 32.7913 27.5994 32.5118 27.5496C32.1127 27.4767 31.835 27.2664 31.6441 26.9038C31.4679 26.5671 31.2587 26.2488 31.0386 25.8798C30.9071 26.1132 30.8066 26.2913 30.7071 26.4684Z" fill="#040403"/>
<path d="M35.0006 10.5943C34.7905 11.1285 34.7732 11.7032 34.6672 12.2595C34.5311 12.9699 34.4334 13.6876 34.3065 14.3989C34.1722 15.1526 33.7466 15.5013 32.983 15.5041C32.5163 15.505 32.0487 15.5096 31.582 15.5032C30.9874 15.4948 30.5417 15.1664 30.4321 14.576C30.1663 13.1424 29.9215 11.7042 29.695 10.2641C29.611 9.73086 30.0978 9.1635 30.675 9.14782C31.7902 9.11737 32.9072 9.1183 34.0224 9.14966C34.5238 9.1635 34.8161 9.52698 35.0006 9.97441C35.0006 10.1801 35.0006 10.3868 35.0006 10.5943ZM31.4596 14.3878C31.5016 14.4847 31.5893 14.4653 31.6651 14.4653C32.1081 14.4671 32.5519 14.4598 32.9949 14.469C33.1785 14.4727 33.2616 14.398 33.2908 14.2199C33.5046 12.9431 33.7183 11.6663 33.942 10.3914C33.974 10.2115 33.9183 10.1635 33.7575 10.1663C33.3712 10.1737 32.9858 10.1774 32.5994 10.1829C32.066 10.1764 31.5327 10.1801 31.0002 10.1598C30.7472 10.1497 30.7225 10.2622 30.76 10.4698C30.8586 11.0215 30.9372 11.5778 31.0431 12.1285C31.1892 12.8804 31.2568 13.647 31.4596 14.3878Z" fill="#030402"/>
<path d="M21.0097 11.1525C20.7915 10.8702 20.8316 10.6146 21.0554 10.3471C21.7249 9.5482 22.3779 8.73637 23.0456 7.93561C23.589 7.28338 24.3443 7.25109 24.9462 7.85166C25.6431 8.54725 26.3363 9.24653 27.025 9.9495C27.6205 10.5565 27.5876 11.3204 26.9355 11.8702C24.7142 13.7402 22.4912 15.6083 20.2581 17.4645C20.0233 17.6591 20.0096 17.7689 20.2106 17.9921C20.5229 18.3409 20.8061 18.7182 21.0846 19.0955C21.1924 19.2413 21.271 19.2708 21.4417 19.1887C23.2428 18.327 25.1453 18.03 27.1218 18.1969C28.4087 18.3058 29.6636 18.5936 30.8756 19.0318C32.3872 19.5789 33.0457 21.2026 32.3443 22.5513C31.8355 23.5283 30.7487 23.9526 29.5504 23.603C28.4808 23.2912 27.4195 22.9517 26.3144 22.781C25.3654 22.6353 24.4128 22.591 23.4538 22.6187C23.188 22.626 23.1972 22.7238 23.2739 22.9259C23.4529 23.3991 23.568 23.889 23.6146 24.3955C23.7278 25.6344 23.2017 26.568 22.0509 27.0044C20.3193 27.6612 18.573 28.2784 16.8303 28.9057C12.9057 30.3181 8.98017 31.7259 5.05556 33.1355C4.74503 33.2472 4.43175 33.3431 4.10478 33.4012C2.55484 33.6743 1.44879 32.5562 1.75111 30.9989C1.93103 30.0718 2.31555 29.2083 2.62608 28.3236C4.34955 23.4065 6.0858 18.494 7.81932 13.5806C7.91796 13.3001 8.02756 13.0225 8.14721 12.7503C8.58378 11.7623 9.45511 11.2466 10.5292 11.3167C11.1375 11.3564 11.7248 11.4901 12.2791 11.7337C12.5751 11.8638 12.6226 11.7909 12.6527 11.4975C12.8692 9.42089 12.6253 7.39131 12.0773 5.39034C11.891 4.70951 11.8362 4.03237 12.1504 3.37184C12.8765 1.84504 14.9963 1.66054 16.0914 3.01851C16.5572 3.59601 16.6915 4.29345 16.8486 4.98719C17.382 7.34057 17.4276 9.67735 16.6202 11.9855C16.4348 12.5169 16.2211 13.0363 15.9425 13.5234C15.8311 13.718 15.8366 13.8315 16.0257 13.9699C16.3846 14.2328 16.7335 14.5114 17.0669 14.8066C17.2313 14.9524 17.3071 14.921 17.4331 14.7642C18.0505 13.9967 18.6789 13.2383 19.3064 12.4791C19.6069 12.1147 19.7356 12.0852 20.1603 12.2641C20.3878 12.5649 20.3576 12.8352 20.1128 13.1239C19.4662 13.8896 18.8406 14.6729 18.1967 15.4404C18.0715 15.5899 18.0304 15.683 18.2076 15.8196C18.4131 15.9792 18.5967 16.1674 18.7894 16.3427C18.8689 16.4386 18.9566 16.5299 19.0269 16.6333C19.2022 16.8934 19.3447 16.9091 19.6059 16.6868C21.703 14.9053 23.8173 13.1442 25.9244 11.3748C26.5418 10.8563 26.5391 10.8536 25.9134 10.3148C25.3874 9.77606 24.8631 9.23638 24.3361 8.69854C24.0301 8.38673 24.0055 8.38949 23.7351 8.71792C23.1104 9.47716 22.4875 10.2373 21.8591 10.9938C21.5696 11.3416 21.3915 11.3702 21.0097 11.1525ZM6.52695 29.6982C5.80176 28.8291 4.93317 28.1188 4.05089 27.3679C3.76319 28.1843 3.48462 28.9565 3.21975 29.7342C3.0727 30.165 2.87086 30.5792 2.8051 31.0368C2.68636 31.4667 2.6617 31.8744 3.03891 32.2047C3.33118 32.4602 3.67094 32.4529 4.00705 32.3624C5.20626 32.0423 6.34611 31.5432 7.52248 31.1539C7.71703 31.0894 7.66405 31.0008 7.56632 30.8855C7.22748 30.4823 6.90324 30.0663 6.52695 29.6982ZM14.0081 3.16058C13.293 3.29434 12.9194 3.75838 12.9641 4.48995C12.9797 4.73995 13.0308 4.9918 13.0966 5.23351C13.6848 7.38301 13.9076 9.56204 13.6464 11.7844C13.5697 12.4366 13.482 12.2909 14.0775 12.6027C14.2757 12.7346 14.4839 12.8536 14.6684 13.0031C14.8968 13.1876 15 13.1387 15.1306 12.8767C16.5417 10.0482 16.4348 7.13854 15.579 4.1975C15.3644 3.45579 14.7351 3.09046 14.0081 3.16058ZM22.3514 20.9516C22.3916 21.0328 22.4419 21.1112 22.4693 21.1961C22.5907 21.5771 22.8328 21.6408 23.2182 21.6112C24.537 21.5079 25.8486 21.6223 27.1483 21.8788C28.0963 22.0661 29.0069 22.3926 29.9403 22.6297C30.9368 22.8834 31.693 22.2413 31.5771 21.2616C31.5113 20.7081 31.1989 20.3179 30.6911 20.0909C30.2865 19.8695 29.8371 19.7837 29.4006 19.6665C27.035 19.0328 24.6859 18.9719 22.3724 19.9082C21.8299 20.1278 21.829 20.1278 22.145 20.6398C22.2099 20.7459 22.282 20.8483 22.3514 20.9516ZM7.5992 29.3079C7.93897 29.7222 8.28055 30.1345 8.61666 30.5515C8.69521 30.6493 8.76371 30.7093 8.90071 30.6585C9.62407 30.3919 10.3493 30.1308 11.0763 29.8744C11.2197 29.8236 11.2653 29.772 11.1621 29.6364C10.8461 29.2185 10.5584 28.7784 10.1967 28.3965C8.85961 26.64 7.23204 25.1962 5.47204 23.8917C5.29029 23.7571 5.27019 23.8964 5.22909 24.0144C4.98249 24.7174 4.74046 25.4213 4.48564 26.1206C4.42992 26.2737 4.44271 26.3669 4.57515 26.4721C5.6611 27.3328 6.67034 28.2775 7.5992 29.3079ZM12.3897 12.9293C12.3604 12.9118 12.3312 12.8942 12.302 12.8767C11.8599 12.6295 11.3832 12.4671 10.8881 12.3979C9.72545 12.2346 9.26787 12.5344 8.93998 13.5188C8.79842 13.9422 8.6468 14.3629 8.48058 14.7762C8.39838 14.981 8.45409 15.0502 8.65228 15.1092C8.90162 15.184 9.14092 15.2947 9.37747 15.4044C11.279 16.2864 12.902 17.5761 14.4602 18.9599C14.7287 19.1988 14.7324 19.4682 14.5524 19.7597C14.2419 19.995 13.9725 19.9267 13.7003 19.6748C12.9696 18.9986 12.1951 18.3732 11.3859 17.7966C10.4269 17.1139 9.43045 16.4976 8.32257 16.0825C8.1125 16.0041 8.02665 16.0438 7.95723 16.2587C7.77822 16.815 7.5919 17.3694 7.37544 17.9119C7.27314 18.1674 7.35352 18.2671 7.56541 18.3833C9.57293 19.4848 11.3247 20.9267 12.924 22.5596C14.0547 23.7146 15.0411 24.9933 15.9462 26.3355C16.1901 26.7608 16.4394 27.1824 16.675 27.6132C16.7518 27.7544 16.8175 27.8199 16.9901 27.7553C17.5838 27.5302 18.1811 27.3134 18.7821 27.1105C18.962 27.0496 18.9821 26.9619 18.9218 26.807C18.7465 26.3614 18.5848 25.9093 18.3227 25.5053C18.246 25.354 18.1757 25.199 18.0907 25.0514C17.3747 23.8115 16.5106 22.6823 15.5845 21.5983C15.3041 21.2699 15.2959 21.1085 15.5224 20.7441C15.9307 20.5549 16.0558 20.5771 16.3499 20.9138C17.4623 22.1869 18.4451 23.5532 19.2771 25.0292C19.4817 25.5265 19.7475 25.997 19.8991 26.5164C19.9457 26.675 20.0261 26.6667 20.1549 26.6169C20.6745 26.4158 21.2025 26.2368 21.7185 26.0265C22.3916 25.7525 22.6665 25.2294 22.5944 24.4914C22.5003 23.5301 22.124 22.6722 21.6573 21.8539C19.9009 18.7763 17.5308 16.2679 14.6593 14.2347C13.9442 13.7282 13.2153 13.2365 12.3878 12.9256L12.3897 12.9293ZM11.2288 27.9952C11.5384 28.4195 11.8499 28.843 12.1568 29.2701C12.2262 29.3679 12.2728 29.4463 12.4253 29.39C13.493 28.9998 14.5643 28.6207 15.6347 28.2378C15.7425 28.1991 15.8156 28.1612 15.7325 28.0219C15.4767 27.5893 15.253 27.1363 14.9397 26.7396C14.5104 26.0182 13.9862 25.3669 13.4583 24.7202C11.6809 22.543 9.58389 20.745 7.16354 19.3317C6.98088 19.2247 6.91146 19.2265 6.83657 19.4451C6.48493 20.4756 6.11777 21.5015 5.75244 22.5273C5.69946 22.6768 5.67298 22.7801 5.84103 22.8982C7.88325 24.33 9.68344 26.0265 11.2288 27.9952Z" fill="#030302"/>
<path d="M4.14287 1.5526C4.80504 1.79061 5.33294 1.41237 5.80149 0.854241C5.98415 0.636523 6.19787 0.440023 6.41799 0.259207C6.85456 -0.0996588 7.34685 0.0313409 7.53226 0.5701C7.71128 1.08949 7.85376 1.62179 7.9935 2.15317C8.0419 2.33767 8.1305 2.44653 8.29581 2.53233C8.70955 2.7482 9.11416 2.9816 9.5206 3.21131C10.2522 3.62461 10.2832 4.11171 9.60919 4.60065C9.23015 4.87556 8.8566 5.15786 8.46386 5.41156C8.25928 5.54348 8.18164 5.71691 8.14328 5.94017C8.05743 6.44941 7.96884 6.95864 7.86563 7.46419C7.74233 8.06938 7.27196 8.26864 6.77054 7.91716C6.35954 7.62933 5.96132 7.32028 5.57863 6.99462C5.364 6.81196 5.15119 6.77875 4.88724 6.82211C4.40499 6.90053 3.9191 6.97341 3.43229 7.00754C2.81487 7.05182 2.52078 6.65421 2.71441 6.06194C2.87789 5.56101 3.04686 5.06099 3.23775 4.57113C3.32086 4.35802 3.30534 4.18366 3.21035 3.98532C2.98658 3.52313 2.77012 3.05541 2.56553 2.58307C2.31345 2.00095 2.58928 1.5692 3.214 1.55352C3.48709 1.54706 3.76109 1.5526 4.14287 1.5526ZM6.08005 6.05733C6.35862 6.2852 6.63719 6.51306 7.02445 6.82949C6.94133 5.42078 7.54231 4.5167 8.78993 3.9927C8.51684 3.83864 8.35974 3.72055 8.18438 3.65505C7.41992 3.36907 6.99978 2.82293 6.8847 2.00925C6.85913 1.82751 6.84543 1.51662 6.69564 1.4954C6.50476 1.46773 6.37324 1.73434 6.23076 1.89025C6.14673 1.96589 6.049 2.03139 5.97959 2.11903C5.64987 2.53233 5.23065 2.68547 4.71187 2.61536C4.47623 2.58399 4.23329 2.61443 3.99673 2.59229C3.71725 2.56554 3.72182 2.67071 3.82776 2.87643C3.95289 3.11998 4.04423 3.38198 4.17392 3.62369C4.39129 4.02683 4.39403 4.42906 4.23237 4.84973C4.10268 5.18646 3.99034 5.53056 3.85242 5.92264C4.28078 5.86544 4.65068 5.81563 5.01967 5.76581C5.41332 5.7123 5.75582 5.8516 6.08005 6.05733Z" fill="#040403"/>
<path d="M32.2743 6.49837C31.8222 6.43933 31.3253 6.38213 30.8312 6.30741C30.6239 6.27604 30.4631 6.32402 30.2996 6.45871C29.9571 6.74192 29.6064 7.01776 29.2456 7.27699C28.6967 7.67184 28.2254 7.4698 28.1021 6.79912C28.0629 6.58509 27.9907 6.37106 27.9889 6.15611C27.9825 5.38672 27.6062 4.88117 26.9477 4.54353C26.7568 4.44574 26.5878 4.30274 26.417 4.1699C25.9448 3.80273 25.9631 3.30825 26.4727 2.99736C26.871 2.75473 27.2783 2.52687 27.6939 2.31561C27.8857 2.21782 27.9779 2.08221 28.0291 1.88109C28.1359 1.4595 28.2519 1.03974 28.3789 0.62368C28.5835 -0.0516143 29.1086 -0.197375 29.6219 0.279575C29.948 0.583089 30.2695 0.89306 30.5791 1.21318C30.717 1.35525 30.8549 1.41983 31.055 1.40783C31.486 1.382 31.919 1.37186 32.351 1.37001C33.0743 1.36724 33.3429 1.78792 33.0479 2.45306C32.8624 2.87097 32.6734 3.28796 32.477 3.70033C32.404 3.85532 32.3939 3.99093 32.4569 4.15791C32.6378 4.63947 32.8095 5.12564 32.9611 5.61735C33.1145 6.11645 32.8296 6.49192 32.2743 6.49837ZM29.3571 5.87105H29.3598C30.043 5.14963 30.8887 5.181 31.8085 5.41255C31.6742 5.03155 31.571 4.72988 31.4614 4.42913C31.3253 4.05458 31.3253 3.69018 31.5162 3.33132C31.6075 3.15972 31.6815 2.97891 31.7619 2.80178C31.9327 2.42539 31.9318 2.42723 31.5208 2.43185C30.9609 2.43738 30.3709 2.56561 29.9352 2.04715C29.7343 1.81467 29.5187 1.59788 29.2758 1.40968C29.1013 1.65507 29.0593 1.95121 28.9981 2.23166C28.9004 2.68185 28.6721 2.98998 28.2574 3.18648C27.9889 3.31379 27.7131 3.44387 27.4226 3.69018C28.43 4.10348 28.9488 4.82859 28.9835 5.88766C28.9945 6.21608 29.1278 6.07954 29.2529 5.95131C29.2886 5.92364 29.3224 5.89688 29.3571 5.87105Z" fill="#040403"/>
<path d="M18.7888 16.3427C18.5961 16.1674 18.4125 15.9792 18.207 15.8196C18.0298 15.6821 18.0709 15.589 18.1961 15.4404C18.84 14.6729 19.4656 13.8887 20.1122 13.1239C20.3561 12.8352 20.3872 12.564 20.1597 12.2641C20.4246 11.8794 20.789 11.5722 21.0091 11.1534C21.3909 11.3711 21.569 11.3425 21.8585 10.9938C22.486 10.2373 23.1089 9.47717 23.7345 8.71793C24.0049 8.3895 24.0286 8.38674 24.3355 8.69855C24.8625 9.23547 25.3877 9.77607 25.9128 10.3148C25.1329 10.9754 24.3556 11.6387 23.5729 12.2974C22.5728 13.1378 21.5672 13.9718 20.5689 14.814C19.9707 15.3168 19.3816 15.8316 18.7888 16.3427Z" fill="#FBCC84"/>
<path d="M5.58645 14.5087C5.58097 15.1443 5.28871 15.5659 4.73157 15.7329C4.20914 15.8897 3.68214 16.0337 3.15241 16.1637C2.65007 16.2864 2.13221 16.0659 1.892 15.5613C1.26363 14.2384 0.655345 12.9053 0.0708091 11.5621C-0.158439 11.0363 0.192283 10.3776 0.786866 10.2005C1.79976 9.8988 2.81995 9.61927 3.84655 9.36927C4.56352 9.19399 5.14074 9.67278 5.20833 10.4265C5.32341 11.7208 5.4458 13.0142 5.56545 14.3076C5.57367 14.3869 5.58189 14.4672 5.58645 14.5087ZM2.66286 14.7523C2.71675 15.1083 2.89485 15.2006 3.23552 15.0779C3.56615 14.958 3.91139 14.8777 4.25481 14.8011C4.50598 14.7449 4.57174 14.6286 4.54342 14.3648C4.42926 13.303 4.34431 12.2383 4.24567 11.1756C4.15434 10.1912 4.30504 10.3001 3.34786 10.5972C2.63546 10.7817 1.92397 10.9671 1.21157 11.1488C1.05813 11.1876 1.04717 11.2725 1.10653 11.4007C1.62714 12.517 2.145 13.6351 2.66286 14.7523Z" fill="#030403"/>
<path d="M26.2729 31.8597C26.2784 32.1872 26.1569 32.4639 25.9304 32.6937C25.2874 33.345 24.6499 34.0018 23.9969 34.6421C23.4498 35.179 22.7456 35.1024 22.3036 34.476C21.625 33.5129 20.9473 32.5479 20.2732 31.582C19.7882 30.8873 19.8312 30.4178 20.4267 29.8163C20.708 29.5312 20.9874 29.2452 21.2733 28.9648C21.6825 28.5626 22.1775 28.4574 22.6388 28.771C23.7594 29.5349 24.8573 30.3338 25.956 31.13C26.1907 31.2988 26.2729 31.5682 26.2729 31.8597ZM22.8406 30.1964C22.8178 30.1733 22.794 30.1502 22.7712 30.1272C22.5986 29.9971 22.425 29.8689 22.2533 29.7369C22.1392 29.6484 22.046 29.6336 21.9318 29.7554C21.6587 30.0478 21.3738 30.3301 21.087 30.6097C20.9865 30.7084 20.9737 30.7914 21.0569 30.9067C21.6039 31.6696 22.1474 32.4344 22.6917 33.1983C22.8233 33.3976 22.9584 33.5941 23.0854 33.797C23.1776 33.9455 23.2589 33.9372 23.3749 33.8173C23.9576 33.2213 24.5449 32.63 25.1331 32.0396C25.2198 31.9519 25.2555 31.88 25.1313 31.7942C24.3622 31.2674 23.6343 30.6816 22.8406 30.1908V30.1964Z" fill="#030303"/>
<path d="M18.79 4.10622C18.7808 3.93924 18.8429 3.76581 18.906 3.59329C19.2375 2.69013 19.5654 1.78605 19.8988 0.883813C20.1508 0.200216 20.7436 -0.0230375 21.3793 0.336751C22.014 0.695616 22.6442 1.06186 23.269 1.43826C23.9247 1.83218 24.027 2.43828 23.5457 3.02778C22.9374 3.77319 22.3273 4.51675 21.7145 5.25847C21.2423 5.82951 20.7938 5.90885 20.1563 5.53707C19.8613 5.36548 19.5663 5.19204 19.274 5.01492C18.9434 4.81565 18.7799 4.51859 18.79 4.10622ZM20.803 1.41242C20.5701 2.04436 20.3362 2.6763 20.1043 3.30915C19.7983 4.14589 19.8029 4.13851 20.5783 4.59055C20.7865 4.7114 20.9071 4.69388 20.9957 4.47247C21.5519 3.80732 22.1054 3.14125 22.6653 2.47887C22.763 2.36356 22.721 2.31282 22.6132 2.25008C22.0908 1.94934 21.5711 1.6449 21.0514 1.33862C20.9372 1.2722 20.8404 1.23161 20.803 1.41242Z" fill="#030403"/>
<path d="M30.7071 26.4684C30.8066 26.2913 30.9071 26.1132 31.0386 25.8798C31.2587 26.2479 31.4679 26.5671 31.6441 26.9038C31.8341 27.2673 32.1118 27.4777 32.5118 27.5496C32.7904 27.6003 33.0616 27.6926 33.3402 27.7461C33.5813 27.7932 33.6663 27.8568 33.4589 28.0745C33.2544 28.2895 33.0872 28.5395 32.8872 28.759C32.6041 29.0699 32.5127 29.4297 32.5557 29.8393C32.5867 30.1364 32.5885 30.4371 32.6333 30.7314C32.6762 31.0128 32.5703 30.986 32.3821 30.8993C32.1246 30.7803 31.857 30.6825 31.5985 30.5654C31.3053 30.4316 31.0002 30.4547 30.6934 30.4731C30.7765 29.9805 30.8897 29.4915 30.9354 28.9952C31.0158 28.1428 30.9801 27.2922 30.7071 26.4684Z" fill="#F9B13F"/>
<path d="M30.707 26.4684C30.9801 27.2922 31.0157 28.1428 30.9354 28.9952C30.8888 29.4906 30.7764 29.9805 30.6933 30.4731C30.2988 30.6438 29.9042 30.8144 29.4512 31.01C29.464 30.724 29.4439 30.486 29.4895 30.2609C29.6329 29.5496 29.4484 28.9712 28.947 28.4389C28.3954 27.8531 28.4173 27.7756 29.2064 27.6548C29.959 27.5394 30.4001 27.1132 30.707 26.4684Z" fill="#FACB83"/>
<path d="M32.5988 10.1838C32.9852 10.1783 33.3715 10.1746 33.7569 10.1672C33.9168 10.1645 33.9725 10.2124 33.9414 10.3923C33.7177 11.6673 33.503 12.9441 33.2902 14.2208C33.2601 14.3989 33.1779 14.4736 32.9943 14.4699C32.5513 14.4607 32.1075 14.4681 31.6645 14.4662C31.5887 14.4662 31.501 14.4856 31.459 14.3887C31.5585 14.3371 31.5878 14.2319 31.638 14.1433C32.3376 12.9173 32.565 11.5741 32.5988 10.1838Z" fill="#4EBF22"/>
<path d="M32.6004 10.1839C32.5666 11.575 32.3383 12.9173 31.6378 14.1434C31.5875 14.2319 31.5583 14.3362 31.4588 14.3888C31.256 13.648 31.1884 12.8813 31.0432 12.1295C30.9372 11.5787 30.8596 11.0234 30.7601 10.4708C30.7226 10.2632 30.7473 10.1506 31.0003 10.1608C31.5346 10.1811 32.068 10.1774 32.6004 10.1839Z" fill="#7ECF5F"/>
<path d="M14.5517 19.7606C14.7316 19.4691 14.728 19.1997 14.4594 18.9608C12.9013 17.577 11.2783 16.2873 9.37671 15.4054C9.14016 15.2956 8.89995 15.1849 8.65152 15.1102C8.45424 15.0511 8.39762 14.9819 8.47982 14.7771C8.64604 14.3629 8.79857 13.9431 8.93922 13.5197C9.26711 12.5363 9.72469 12.2365 10.8874 12.3988C11.3824 12.468 11.8592 12.6304 12.3012 12.8776C12.3304 12.8952 12.3597 12.9127 12.3889 12.9302L12.3852 12.9256C12.3953 13.0031 12.4537 13.0372 12.5095 13.0787C13.241 13.6221 13.9443 14.2024 14.6056 14.8269C16.0788 16.2181 17.373 17.767 18.4653 19.4802C19.1741 20.5918 19.8015 21.7469 19.9933 23.0836C20.1057 23.8622 19.9449 24.5431 19.2736 25.0283C18.4416 23.5523 17.4579 22.186 16.3464 20.9129C16.0523 20.5762 15.9272 20.554 15.5189 20.7431C15.212 20.4009 14.9024 20.0595 14.5517 19.7606Z" fill="#7FD060"/>
<path d="M11.2276 27.9952C9.68132 26.0265 7.88204 24.3299 5.83982 22.8973C5.67177 22.7792 5.69825 22.6758 5.75123 22.5264C6.11656 21.5005 6.48372 20.4756 6.83536 19.4442C6.91025 19.2256 6.97966 19.2246 7.16233 19.3307C9.58268 20.7441 11.6797 22.5421 13.4571 24.7193C13.985 25.366 14.5101 26.0173 14.9385 26.7387C14.396 26.9278 13.8562 27.1271 13.31 27.3051C12.615 27.533 11.9546 27.8669 11.2276 27.9952Z" fill="#7FD060"/>
<path d="M14.5522 19.7607C14.9029 20.0596 15.2125 20.4009 15.5203 20.7432C15.2929 21.1076 15.3011 21.269 15.5824 21.5974C16.5085 22.6814 17.3725 23.8115 18.0886 25.0505C18.1735 25.1972 18.2429 25.3521 18.3206 25.5044C17.5287 25.7811 16.7369 26.0588 15.945 26.3356C15.0399 24.9933 14.0544 23.7146 12.9228 22.5596C11.3235 20.9258 9.57173 19.4839 7.56421 18.3833C7.35232 18.2671 7.27194 18.1675 7.37424 17.9119C7.59161 17.3704 7.77702 16.815 7.95603 16.2587C8.02545 16.0438 8.1113 16.0041 8.32137 16.0825C9.42925 16.4977 10.4257 17.1139 11.3847 17.7966C12.1948 18.3732 12.9684 18.9987 13.6991 19.6749C13.9722 19.9276 14.2416 19.9968 14.5522 19.7607Z" fill="#FBCC84"/>
<path d="M19.2751 25.0283C19.9464 24.5431 20.1062 23.8622 19.9948 23.0836C19.8021 21.7459 19.1756 20.5919 18.4668 19.4802C17.3735 17.7671 16.0793 16.2181 14.607 14.8269C13.9458 14.2024 13.2416 13.6221 12.5109 13.0787C12.4552 13.0372 12.3968 13.0022 12.3867 12.9256C13.2151 13.2365 13.943 13.7273 14.6582 14.2347C17.5297 16.2679 19.8998 18.7763 21.6562 21.8539C22.1229 22.6722 22.4992 23.531 22.5933 24.4914C22.6654 25.2294 22.3896 25.7525 21.7174 26.0265C21.2013 26.2368 20.6734 26.4167 20.1537 26.6169C20.0259 26.6667 19.9446 26.675 19.898 26.5164C19.7455 25.9961 19.4797 25.5256 19.2751 25.0283Z" fill="#4EBF22"/>
<path d="M7.59784 29.308C6.66807 28.2775 5.65974 27.3338 4.57378 26.474C4.44135 26.3688 4.42856 26.2756 4.48428 26.1225C4.7391 25.4232 4.98113 24.7184 5.22773 24.0163C5.26975 23.8982 5.28893 23.7589 5.47068 23.8936C7.23068 25.1981 8.85825 26.6419 10.1954 28.3984C9.89854 28.5921 9.55147 28.6594 9.22632 28.772C8.68654 28.9583 8.16868 29.2167 7.59784 29.308Z" fill="#FBCC84"/>
<path d="M22.3521 20.9517C22.2826 20.8474 22.2105 20.746 22.1456 20.6399C21.8296 20.1279 21.8305 20.1288 22.3731 19.9083C24.6865 18.971 27.0356 19.0328 29.4012 19.6666C29.8378 19.7838 30.288 19.8695 30.6917 20.091C30.5785 20.1223 30.5392 20.2229 30.4963 20.3151C30.1492 21.0559 29.1135 21.3115 28.4851 21.1897C27.5453 21.008 26.5982 20.8456 25.6382 20.8133C24.5404 20.7764 23.4435 20.8133 22.3521 20.9517Z" fill="#FB75A6"/>
<path d="M14.0779 12.6027C13.4824 12.2909 13.5701 12.4367 13.6468 11.7844C13.908 9.56204 13.6852 7.38302 13.097 5.23352C13.0303 4.99181 12.9792 4.73996 12.9645 4.48995C12.9198 3.75839 13.2933 3.29343 14.0085 3.16058C14.245 3.49639 14.4642 3.8451 14.5537 4.25194C14.8981 5.82209 15.2104 7.38948 15.0597 9.02328C14.9794 9.89508 14.8369 10.7429 14.5611 11.5649C14.4405 11.9228 14.3976 12.3333 14.0779 12.6027Z" fill="#FB75A6"/>
<path d="M14.0781 12.6027C14.3978 12.3333 14.4407 11.9228 14.5604 11.5649C14.8362 10.7429 14.9787 9.89509 15.0591 9.0233C15.2098 7.38949 14.8974 5.82211 14.5531 4.25196C14.4636 3.84512 14.2453 3.4964 14.0078 3.1606C14.7348 3.09049 15.3641 3.45581 15.5797 4.19753C16.4355 7.13856 16.5423 10.0482 15.1312 12.8767C15.0006 13.1378 14.8974 13.1876 14.6691 13.0031C14.4846 12.8537 14.2763 12.7347 14.0781 12.6027Z" fill="#FB5592"/>
<path d="M22.3516 20.9517C23.443 20.8133 24.5399 20.7764 25.6378 20.8133C26.5977 20.8456 27.5448 21.0079 28.4846 21.1897C29.1139 21.3115 30.1487 21.0559 30.4958 20.3151C30.5387 20.2229 30.578 20.1232 30.6912 20.0909C31.1991 20.317 31.5114 20.7072 31.5772 21.2616C31.6932 22.2423 30.936 22.8835 29.9405 22.6298C29.0071 22.3927 28.0965 22.0661 27.1484 21.8788C25.8487 21.6223 24.5381 21.508 23.2183 21.6113C22.8338 21.6417 22.5909 21.5781 22.4694 21.1961C22.442 21.1113 22.3908 21.0328 22.3516 20.9517Z" fill="#FB5592"/>
<path d="M18.7891 16.3427C19.3818 15.8325 19.9709 15.3168 20.5692 14.8122C21.5674 13.9699 22.5739 13.1369 23.5731 12.2955C24.3559 11.6377 25.1331 10.9744 25.9131 10.313C26.5387 10.8527 26.5415 10.8554 25.9241 11.373C23.817 13.1424 21.7026 14.9035 19.6056 16.6849C19.3444 16.9073 19.2019 16.8916 19.0265 16.6314C18.9562 16.529 18.8685 16.4386 18.7891 16.3427Z" fill="#F9B13F"/>
<path d="M6.52655 29.6982C6.90285 30.0672 7.22708 30.4823 7.56593 30.8846C7.66366 31.0008 7.71572 31.0894 7.52209 31.153C6.34571 31.5423 5.20587 32.0414 4.00666 32.3615C3.67055 32.451 3.33079 32.4593 3.03852 32.2038C2.66131 31.8735 2.68506 31.4658 2.8047 31.0359C3.57556 30.8504 4.30532 30.5386 5.04695 30.2674C5.54198 30.0866 6.06806 29.9805 6.52655 29.6982Z" fill="#4EBF22"/>
<path d="M6.52745 29.6982C6.06895 29.9805 5.54287 30.0866 5.04693 30.2683C4.3053 30.5395 3.57554 30.8513 2.80469 31.0368C2.87136 30.5792 3.0723 30.165 3.21934 29.7342C3.48512 28.9565 3.76369 28.1834 4.05048 27.3679C4.93276 28.1188 5.80226 28.8282 6.52745 29.6982Z" fill="#7ECF5F"/>
<path d="M11.2285 27.9952C11.9555 27.867 12.615 27.533 13.31 27.3061C13.8562 27.128 14.396 26.9297 14.9385 26.7396C15.2518 27.1363 15.4755 27.5893 15.7313 28.0219C15.8144 28.1622 15.7413 28.2 15.6335 28.2378C14.5631 28.6207 13.4918 28.9998 12.4241 29.3901C12.2715 29.4454 12.2259 29.367 12.1556 29.2701C11.8505 28.843 11.5381 28.4196 11.2285 27.9952Z" fill="#4EBF22"/>
<path d="M7.59961 29.3079C8.17045 29.2166 8.68831 28.9583 9.22809 28.771C9.55324 28.6585 9.90122 28.5902 10.1971 28.3974C10.5588 28.7784 10.8465 29.2194 11.1625 29.6373C11.2657 29.7738 11.2201 29.8246 11.0767 29.8753C10.3497 30.1318 9.62448 30.3928 8.90112 30.6595C8.76411 30.7102 8.69561 30.6502 8.61707 30.5524C8.28096 30.1345 7.93937 29.7222 7.59961 29.3079Z" fill="#F9B13F"/>
<path d="M15.9453 26.3365C16.7372 26.0598 17.529 25.7821 18.3209 25.5053C18.583 25.9103 18.7456 26.3614 18.9201 26.807C18.9812 26.962 18.9602 27.0496 18.7803 27.1105C18.1793 27.3135 17.582 27.5312 16.9883 27.7554C16.8166 27.8209 16.7509 27.7544 16.6732 27.6133C16.4385 27.1834 16.1892 26.7618 15.9453 26.3365Z" fill="#F9B13F"/>
<path d="M12.3885 12.9293C12.3592 12.9118 12.33 12.8942 12.3008 12.8767C12.3309 12.8952 12.3592 12.9127 12.3885 12.9293Z" fill="#4EBF22"/>
<path d="M6.08048 6.05735C5.75624 5.85163 5.41374 5.71232 5.02009 5.76491C4.6511 5.81472 4.2812 5.86454 3.85285 5.92174C3.99076 5.52966 4.10401 5.18556 4.2328 4.84883C4.39446 4.42816 4.39172 4.02685 4.17434 3.62278C4.04465 3.382 3.95331 3.12 3.82819 2.87553C3.72315 2.66981 3.71767 2.56464 3.99715 2.59139C4.23462 2.61445 4.47757 2.58309 4.7123 2.61445C5.23107 2.68457 5.65029 2.53143 5.98001 2.11813C6.04942 2.03049 6.14715 1.96499 6.23118 1.88934C6.25218 1.92901 6.28324 1.96591 6.29146 2.00743C6.55998 3.37554 6.47321 4.72521 6.08048 6.05735Z" fill="#FACB83"/>
<path d="M6.08008 6.05733C6.47281 4.72519 6.55958 3.37644 6.29106 2.00925C6.28284 1.96773 6.25087 1.93083 6.23078 1.89116C6.37326 1.73526 6.50478 1.46864 6.69567 1.49632C6.84545 1.51754 6.85824 1.82843 6.88473 2.01017C6.99981 2.82385 7.41994 3.36906 8.18441 3.65597C8.35977 3.72147 8.51686 3.83863 8.78995 3.99362C7.54233 4.5167 6.94136 5.42078 7.02447 6.82949C6.63721 6.51306 6.35865 6.28519 6.08008 6.05733Z" fill="#F9B13F"/>
<path d="M29.9358 2.04712C30.3715 2.56466 30.9615 2.43735 31.5214 2.43182C31.9324 2.42813 31.9333 2.42536 31.7625 2.80175C31.6821 2.97888 31.6082 3.15969 31.5168 3.33129C31.3259 3.69015 31.3259 4.05455 31.462 4.4291C31.5707 4.72985 31.6748 5.03151 31.8091 5.41252C30.8894 5.18096 30.0427 5.1496 29.3604 5.87102C29.3221 5.78061 29.3367 5.69574 29.3741 5.60625C29.8436 4.46508 29.9788 3.2704 29.9358 2.04712Z" fill="#F9B13F"/>
<path d="M29.9354 2.04708C29.9783 3.27036 29.844 4.46596 29.3728 5.60621C29.3362 5.6957 29.3207 5.78057 29.3591 5.87098H29.3563C29.276 5.83685 29.2641 5.89497 29.2522 5.95124C29.1271 6.07947 28.9937 6.21601 28.9828 5.88758C28.9481 4.82852 28.4293 4.1034 27.4219 3.69011C27.7123 3.44379 27.9881 3.31372 28.2567 3.18641C28.6713 2.98898 28.8997 2.68086 28.9974 2.23158C29.0586 1.95206 29.1006 1.655 29.275 1.40961C29.518 1.5978 29.7335 1.8146 29.9354 2.04708Z" fill="#FACB83"/>
<path d="M29.2539 5.95036C29.2658 5.89408 29.2767 5.83596 29.358 5.8701C29.3224 5.89685 29.2886 5.9236 29.2539 5.95036Z" fill="#F9B13F"/>
<path d="M3.34907 10.5971C4.30716 10.3001 4.15554 10.1912 4.24688 11.1756C4.34552 12.2392 4.43046 13.3038 4.54462 14.3648C4.57294 14.6286 4.50626 14.7448 4.25601 14.8011C3.91259 14.8777 3.56735 14.9589 3.23673 15.0779C2.89605 15.2015 2.71704 15.1083 2.66406 14.7522C3.25043 13.4275 3.43583 12.0354 3.34907 10.5971Z" fill="#4EBE22"/>
<path d="M3.34896 10.5972C3.43664 12.0354 3.25032 13.4275 2.66304 14.7523C2.14518 13.6351 1.62732 12.517 1.10763 11.3998C1.04826 11.2715 1.05922 11.1876 1.21266 11.1479C1.92507 10.9662 2.63656 10.7808 3.34896 10.5972Z" fill="#7ECF5F"/>
<path d="M22.8403 30.1909C23.634 30.6816 24.3628 31.2675 25.1309 31.7942C25.2551 31.8791 25.2195 31.952 25.1328 32.0396C24.5455 32.63 23.9573 33.2214 23.3746 33.8173C23.2577 33.9363 23.1773 33.9446 23.0851 33.797C22.959 33.5941 22.8229 33.3976 22.6914 33.1983C22.8275 32.6227 22.8914 32.0396 22.9051 31.4473C22.9143 31.0257 22.7846 30.6134 22.8403 30.1909Z" fill="#4EBE22"/>
<path d="M22.84 30.1908C22.7843 30.6134 22.9149 31.0257 22.9049 31.4473C22.8912 32.0396 22.8273 32.6226 22.6912 33.1983C22.1468 32.4344 21.6034 31.6687 21.0563 30.9067C20.9741 30.7914 20.986 30.7075 21.0864 30.6097C21.3732 30.3301 21.6573 30.0478 21.9313 29.7554C22.0454 29.6336 22.1386 29.6484 22.2528 29.737C22.4236 29.8689 22.598 29.9971 22.7706 30.1272C22.7935 30.1503 22.8172 30.1733 22.84 30.1964V30.1908Z" fill="#7ECF5F"/>
<path d="M22.8409 30.1964C22.8181 30.1733 22.7943 30.1503 22.7715 30.1272C22.7943 30.1503 22.8172 30.1733 22.8409 30.1964Z" fill="#4EBE22"/>
<path d="M20.8027 1.41239C20.8402 1.23158 20.937 1.27125 21.0512 1.33859C21.5709 1.64395 22.0905 1.94931 22.613 2.25005C22.7207 2.31186 22.7628 2.3626 22.665 2.47884C22.1052 3.1403 21.5517 3.80729 20.9954 4.47244C21.0247 3.85711 21.1078 3.24085 21.0484 2.62645C21.0091 2.21592 21.0439 1.78325 20.8027 1.41239Z" fill="#4EBE22"/>
<path d="M20.8038 1.41241C21.0449 1.78327 21.0102 2.21594 21.0494 2.62555C21.1088 3.23995 21.0266 3.85621 20.9965 4.47154C20.9079 4.69387 20.7864 4.71139 20.5791 4.58962C19.8037 4.1385 19.7991 4.14588 20.1051 3.30822C20.337 2.67629 20.5709 2.04435 20.8038 1.41241Z" fill="#7ECF5F"/>
</g>
<defs>
<clipPath id="clip0_917_96">
<rect width="35" height="35" fill="white"/>
</clipPath>
</defs>
</svg>
