<svg width="93" height="51" viewBox="0 0 93 51" fill="none" xmlns="http://www.w3.org/2000/svg">
<g clip-path="url(#clip0_1214_18)">
<path d="M11.1807 20.2049C9.74516 20.0695 8.37173 20.6804 7.49866 21.7981C7.49521 21.8016 7.49176 21.8016 7.49176 21.7981C6.61525 20.6804 5.24527 20.073 3.80972 20.2049C1.63224 20.4062 0 22.2944 0 24.4881V30.5451C0 30.5486 0.00345083 30.5486 0.00345083 30.5486H1.79788C1.80134 30.5486 1.80134 30.5451 1.80134 30.5451V24.4743C1.80134 23.1691 2.80898 22.0515 4.10649 22.0063C5.46612 21.9578 6.58764 23.0546 6.58764 24.4118V30.5451C6.58764 30.5486 6.59109 30.5486 6.59109 30.5486H8.38553C8.38898 30.5486 8.38898 30.5451 8.38898 30.5451V24.4743C8.38898 23.1691 9.39662 22.0515 10.6941 22.0063C12.0538 21.9578 13.1753 23.0546 13.1753 24.4118V30.5451C13.1753 30.5486 13.1787 30.5486 13.1787 30.5486H14.9732C14.9766 30.5486 14.9766 30.5451 14.9766 30.5451V24.4881C14.9835 22.2944 13.3513 20.4062 11.1807 20.2049Z" fill="#FF3399"/>
<path d="M91.7603 16.9734C91.0771 16.9734 90.5215 17.5322 90.5215 18.2195C90.5215 18.9068 91.0771 19.4656 91.7603 19.4656C92.4436 19.4656 92.9992 18.9068 92.9992 18.2195C92.9992 17.5357 92.4436 16.9734 91.7603 16.9734Z" fill="#FF3399"/>
<path d="M69.7857 16.9734C69.1025 16.9734 68.5469 17.5322 68.5469 18.2195C68.5469 18.9068 69.1025 19.4656 69.7857 19.4656C70.469 19.4656 71.0246 18.9068 71.0246 18.2195C71.0246 17.5357 70.469 16.9734 69.7857 16.9734Z" fill="#FF3399"/>
<path d="M20.7121 20.3923C19.2076 20.3923 17.6133 20.9165 16.8748 21.4093C16.6988 21.5274 16.6505 21.7669 16.7678 21.9439L17.3441 22.8151C17.4614 22.9921 17.6996 23.0407 17.8755 22.9227C18.3828 22.5826 19.6079 22.2146 20.7052 22.2146C21.3022 22.2146 22.0959 22.3188 22.479 22.8117C22.5825 22.9435 22.6412 23.1483 22.6412 23.3705V23.6586C22.6412 23.8703 22.4686 24.0439 22.2581 24.0439H19.6182C18.338 24.0439 17.2026 24.6409 16.578 25.6405C16.0121 26.55 15.9431 27.6572 16.3986 28.6048C17.3303 30.5451 19.8839 30.5451 21.4092 30.5451C23.1415 30.5451 24.4459 29.247 24.4459 27.5288V23.374C24.4459 22.7353 24.2596 22.1556 23.9042 21.6974C23.2416 20.8436 22.1373 20.3923 20.7121 20.3923ZM22.2581 25.8627C22.4686 25.8627 22.6412 26.0362 22.6412 26.248V27.5323C22.6412 28.2265 22.1235 28.7332 21.4092 28.7332C19.8805 28.7332 18.4104 28.6222 18.0274 27.8204C17.8445 27.4385 17.8755 26.9873 18.1102 26.6124C18.407 26.1369 18.9557 25.8662 19.6217 25.8662H22.2581V25.8627Z" fill="#FF3399"/>
<path d="M33.2385 22.8151L33.8148 21.9439C33.9322 21.7669 33.8838 21.5274 33.7079 21.4093C32.9728 20.9165 31.3751 20.3923 29.8705 20.3923C28.4453 20.3923 27.3411 20.8436 26.6785 21.694C26.3231 22.1522 26.1367 22.7318 26.1367 23.3705V30.264C26.1367 30.4757 26.3093 30.6493 26.5198 30.6493H27.5619C27.7724 30.6493 27.945 30.4757 27.945 30.264V23.374C27.945 23.1483 28.0036 22.947 28.1071 22.8151C28.4867 22.3188 29.2804 22.2146 29.8774 22.2146C30.9748 22.2146 32.2033 22.5826 32.7106 22.9227C32.8866 23.0407 33.1212 22.9921 33.2385 22.8151Z" fill="#FF3399"/>
<path d="M60.3308 21.6974C59.9754 22.1556 59.7891 22.7353 59.7891 23.374V30.2674C59.7891 30.4792 59.9616 30.6527 60.1721 30.6527H61.2143C61.4248 30.6527 61.5973 30.4792 61.5973 30.2674V23.374C61.5973 23.1483 61.656 22.947 61.7595 22.8151C62.1425 22.3188 62.9362 22.2181 63.5332 22.2181C64.6306 22.2181 65.8591 22.586 66.3664 22.9227C66.5424 23.0407 66.777 22.9921 66.8943 22.8151L67.4706 21.9439C67.588 21.7669 67.5396 21.5274 67.3636 21.4093C66.6286 20.9165 65.0309 20.3923 63.5263 20.3923C62.0977 20.3923 60.9934 20.8436 60.3308 21.6974Z" fill="#FF3399"/>
<path d="M50.2242 26.8936C51.5045 26.8936 52.6398 26.2966 53.2644 25.2969C53.8303 24.3875 53.8993 23.2802 53.4438 22.3326C52.5121 20.3923 49.9585 20.3923 48.4332 20.3923C46.7009 20.3923 45.3965 21.6905 45.3965 23.4087V27.8481C45.3965 28.4868 45.5828 29.0665 45.9417 29.5246C46.6043 30.3785 47.7085 30.8263 49.1337 30.8263C50.6383 30.8263 52.2326 30.3022 52.9711 29.8093C53.1471 29.6913 53.1954 29.4517 53.078 29.2747L52.5018 28.4035C52.3844 28.2265 52.1463 28.1779 51.9703 28.2959C51.4631 28.6361 50.238 29.0005 49.1372 29.0005C48.5402 29.0005 47.75 28.8964 47.3635 28.4C47.2599 28.2681 47.2013 28.0633 47.2013 27.8412V27.2719C47.2013 27.0602 47.3738 26.8867 47.5843 26.8867H50.2242V26.8936ZM47.5843 25.0782C47.3738 25.0782 47.2013 24.9047 47.2013 24.693V23.4087C47.2013 22.7145 47.7189 22.2077 48.4332 22.2077C49.9619 22.2077 51.432 22.3188 51.815 23.1206C51.9979 23.5024 51.9669 23.9536 51.7322 24.3285C51.4354 24.804 50.8833 25.0748 50.2208 25.0748H47.5843V25.0782Z" fill="#FF3399"/>
<path d="M56.5252 17.4768C56.0283 17.4768 55.6211 17.8829 55.6211 18.3862V29.7435C55.6211 30.2433 56.0248 30.6529 56.5252 30.6529C57.0221 30.6529 57.4293 30.2468 57.4293 29.7435V18.3862C57.4259 17.8829 57.0221 17.4768 56.5252 17.4768Z" fill="#FF3399"/>
<path d="M76.7734 20.1876C74.4786 20.2396 72.6738 22.1834 72.6738 24.4917V30.5451C72.6738 30.5486 72.6773 30.5486 72.6773 30.5486H74.4717C74.4752 30.5486 74.4752 30.5451 74.4752 30.5451V24.4743C74.4752 23.1692 75.4828 22.0515 76.7803 22.0064C78.1399 21.9578 79.2615 23.0546 79.2615 24.4118V30.5451C79.2615 30.5486 79.2649 30.5486 79.2649 30.5486H81.0594C81.0628 30.5486 81.0628 30.5451 81.0628 30.5451V24.4083C81.0697 22.048 79.1338 20.1355 76.7734 20.1876Z" fill="#FF3399"/>
<path d="M69.828 30.6493C70.3249 30.6493 70.7321 30.2431 70.7321 29.7398V21.3017C70.7321 20.8019 70.3283 20.3923 69.828 20.3923C69.331 20.3923 68.9238 20.7984 68.9238 21.3017V29.7433C68.9238 30.2431 69.331 30.6493 69.828 30.6493Z" fill="#FF3399"/>
<path d="M56.3527 5.82105C56.3527 5.13379 55.7971 4.57495 55.1139 4.57495C54.4306 4.57495 53.875 5.13379 53.875 5.82105C53.875 6.50832 54.4306 7.06716 55.1139 7.06716C55.7971 7.06716 56.3527 6.50832 56.3527 5.82105Z" fill="#FF3399"/>
<path d="M51.4378 48.9103L36.4025 43.4504C36.0539 43.3289 35.8193 43.1172 35.6812 42.8117C35.3741 42.1245 35.6433 41.156 35.771 40.7742L35.7882 40.7708L35.8503 40.566C35.871 40.4931 35.8917 40.4271 35.9193 40.3681L38.435 34.5888C38.6835 34.0196 38.2694 33.3774 37.6517 33.3774H36.5163C36.1782 33.3774 35.871 33.5788 35.733 33.8912L33.3761 39.306C32.8999 40.3889 32.893 41.635 33.3554 42.7215C33.8178 43.8114 34.7185 44.6653 35.8262 45.0679L50.858 50.5279C51.7173 50.8402 52.6179 50.9999 53.529 50.9999C55.7686 50.9999 58.1255 49.8059 59.737 48.0079H57.1558C55.4545 49.1603 53.2874 49.5837 51.4378 48.9103Z" fill="#FF3399"/>
<path d="M66.1035 34.5821C66.3002 34.1343 66.0862 33.6102 65.6342 33.4331C65.2063 33.2631 64.7232 33.4644 64.5368 33.8879L62.6699 38.1329H64.5437L66.1035 34.5821Z" fill="#FF3399"/>
<path d="M87.1652 20.1911C84.4632 20.0835 82.2305 22.2633 82.2305 24.9568C82.2305 26.1474 82.3892 26.9874 83.2036 27.876L83.3969 28.0877L83.635 27.928C84.0318 27.6642 84.3976 27.5393 84.6357 27.4837L85.2741 27.3275L84.7772 26.8971C84.1319 26.3383 84.0353 25.8037 84.0353 24.9568C84.0353 23.2664 85.457 21.9023 87.1583 22.0099C88.618 22.1036 89.8085 23.2977 89.9017 24.7659C90.0086 26.4806 88.6525 27.9107 86.9719 27.9107C86.8856 27.9107 86.7925 27.9072 86.6993 27.8968C86.6027 27.8794 86.5026 27.8621 86.3887 27.8517L86.261 27.8378L86.1782 27.8343C86.1196 27.8308 86.0574 27.8308 85.9988 27.8308C85.419 27.8308 84.8635 27.9697 84.3424 28.2369C83.0069 28.9346 82.2339 30.3821 82.4203 31.9128C82.6411 33.6969 84.1664 35.0575 85.9539 35.0784C87.9589 35.0992 89.598 33.4678 89.598 31.4546C89.598 30.9027 89.529 30.6528 89.2633 30.1356L89.1252 29.8614L88.8423 29.9759C88.5041 30.1113 88.1452 30.1911 87.7829 30.205L87.1686 30.2328L87.5241 30.7361C87.7415 31.045 87.8208 31.3678 87.8208 31.7253C87.8208 32.791 86.8718 33.3741 85.7883 33.2491C84.9635 33.1554 84.301 32.4855 84.2078 31.6594C84.087 30.5695 84.9359 29.6462 85.9953 29.6462C86.0402 29.6462 86.0851 29.6497 86.1265 29.6531C86.2265 29.6705 86.3266 29.6878 86.4198 29.6983L86.4646 29.7052C86.6372 29.7226 86.8063 29.733 86.9719 29.733C87.4447 29.733 87.914 29.6635 88.3661 29.5212C90.3986 28.8895 91.7548 27.0117 91.7134 24.8666C91.665 22.3535 89.6532 20.2883 87.1652 20.1911Z" fill="#FF3399"/>
<path d="M37.8725 29.2194L38.328 30.2641C38.466 30.58 38.7731 30.7813 39.1148 30.7813H39.5634C39.905 30.7813 40.2121 30.58 40.3502 30.2676L51.103 5.76552C52.1486 3.37745 54.7885 2.20424 57.2386 3.03382L73.1469 8.55971C73.7059 8.75409 74.4237 9.10814 74.6791 9.70169C74.8378 10.0696 74.8068 10.5104 74.5859 11.0137L73.0399 14.5334C72.8432 14.9811 73.0572 15.5053 73.5092 15.6858C73.9371 15.8558 74.4237 15.6545 74.6101 15.2311L76.1595 11.7114L76.1629 11.701C76.2492 11.4823 76.3769 11.1248 76.4908 10.6805C76.9946 8.6569 75.9593 6.62634 74.0821 5.95643L58.1254 0.41318C54.3122 -0.874577 50.2092 0.944249 48.5839 4.64785L39.0354 26.4113C38.956 26.5918 38.7007 26.5918 38.6247 26.4113L36.2333 20.9131C36.0953 20.5973 35.7882 20.396 35.4465 20.396H35.3499C34.7322 20.396 34.3147 21.0346 34.5631 21.6039L37.8725 29.2194Z" fill="#FF3399"/>
<path d="M56.5105 42.9438C55.665 42.9438 55.0508 42.4231 55.0508 41.6664C55.0508 40.9236 55.665 40.403 56.5105 40.403C57.3628 40.403 57.9736 40.9236 57.9736 41.6664C57.9771 42.4231 57.3628 42.9438 56.5105 42.9438ZM56.5105 42.5203C57.0661 42.5203 57.4698 42.1697 57.4698 41.6699C57.4698 41.1805 57.0661 40.8264 56.5105 40.8264C55.9618 40.8264 55.5581 41.1805 55.5581 41.6699C55.5581 42.1697 55.9618 42.5203 56.5105 42.5203ZM56.2655 45.4013H59.5472V45.8213H55.7582V44.3808H58.826V43.7838H55.7375V43.3707H59.3367V44.7661H56.262V45.4013H56.2655ZM60.1787 41.4269V41.8573H59.3402V43.1035H58.8225V40.2017H59.3402V41.4269H60.1787Z" fill="#FF3399"/>
<path d="M65.8721 42.628V43.048H60.7441V42.628H65.8721ZM63.2978 41.9928C62.6663 42.1247 62.1348 42.1525 61.5482 42.1525H61.2376V40.4239H63.1494V40.8369H61.7483V41.7394C62.2349 41.7325 62.7077 41.6943 63.2391 41.5797L63.2978 41.9928ZM61.8898 45.4291H65.389V45.8283H61.386V44.4746H64.7057V43.9713H61.3653V43.5721H65.2164V44.8564H61.8898V45.4291ZM65.4304 42.149H63.4807V40.4204H65.3821V40.8335H63.9948V41.7359H65.4338V42.149H65.4304Z" fill="#FF3399"/>
<path d="M71.6738 43.2873V43.7073H66.5527V43.2873H68.8648V42.5966H67.0531V42.1766H67.8917V40.8819H67.0324V40.4619H71.1872V40.8819H70.3349V42.1766H71.17V42.5966H69.3824V43.2873H71.6738ZM67.7364 45.3457H71.1147V45.7726H67.2187V44.2106H67.7364V45.3457ZM68.4127 42.1766H69.8207V40.8819H68.4127V42.1766Z" fill="#FF3399"/>
<path d="M74.3652 40.7708H76.9603V44.4466H74.3652V40.7708ZM74.8691 44.0301H76.453V41.1908H74.8691V44.0301ZM79.4276 42.9124H78.4924V45.8975H77.9748V40.2085H78.4924V42.4751H79.4276V42.9124Z" fill="#FF3399"/>
<path d="M85.0635 42.666V43.0791H79.9355V42.666H85.0635ZM81.0812 45.4324H84.5804V45.8316H80.5774V44.4918H83.8971V43.9885H80.5567V43.5963H84.4078V44.8667H81.0812V45.4324ZM84.394 42.1835H80.6188V40.3022H81.1295V40.8437H83.8833V40.3022H84.394V42.1835ZM83.8833 41.236H81.1295V41.7809H83.8833V41.236Z" fill="#FF3399"/>
<path d="M89.2489 43.1729C88.3207 43.3256 87.5511 43.3568 86.5021 43.3568H86.0466V41.7324H88.0929V40.9826H86.0293V40.5557H88.6036V42.1316H86.5504V42.9334C87.5546 42.9334 88.293 42.9021 89.1903 42.7563L89.2489 43.1729ZM90.4291 44.8563C90.4291 45.5158 89.7044 45.8907 88.5208 45.8907C87.3475 45.8907 86.6263 45.5158 86.6263 44.8563C86.6263 44.2038 87.3475 43.8289 88.5208 43.8289C89.7044 43.8254 90.4291 44.2003 90.4291 44.8563ZM89.9115 44.8563C89.9115 44.4676 89.3939 44.242 88.5208 44.242C87.6615 44.242 87.1439 44.471 87.1439 44.8563C87.1439 45.2486 87.6615 45.4776 88.5208 45.4776C89.3939 45.4776 89.9115 45.2486 89.9115 44.8563ZM90.398 43.7074H89.8804V40.2017H90.398V43.7074Z" fill="#FF3399"/>
</g>
<defs>
<clipPath id="clip0_1214_18">
<rect width="93" height="51" fill="white"/>
</clipPath>
</defs>
</svg>
