<svg width="20" height="15" viewBox="0 0 20 15" fill="none" xmlns="http://www.w3.org/2000/svg">
<path d="M0 13.4615C0 9.48827 0 5.51426 0 1.54106C0.00824178 1.52402 0.0222528 1.50698 0.0247253 1.48913C0.14588 0.632343 0.900827 -0.015929 1.86759 0.000298035C2.64232 0.0132797 3.41704 0.0027321 4.19177 0.0027321C8.84014 0.0027321 13.4877 0.00192074 18.136 0.00354345C19.2223 0.00354345 19.9954 0.732951 19.9962 1.78122C20.002 5.59458 20.002 9.40795 19.9904 13.2205C19.9896 13.4866 19.9237 13.7747 19.8075 14.0148C19.4745 14.7037 18.8786 14.9998 18.1163 14.9998C12.7064 14.999 7.29645 14.9998 1.88654 14.9998C1.84121 14.9998 1.79506 15.0006 1.74973 14.999C1.18599 14.9738 0.721156 14.7588 0.366759 14.3183C0.164011 14.0643 0.074176 13.7674 0 13.4615ZM2.01347 1.16459C4.70606 3.79175 7.36568 6.38809 9.99234 8.95115C12.647 6.33941 15.2844 3.7447 17.9061 1.16459C12.6478 1.16459 7.35414 1.16459 2.01347 1.16459ZM2.04891 13.8314C7.35497 13.8314 12.6528 13.8314 17.9053 13.8314C16.0641 12.0189 14.208 10.1909 12.3404 8.35238C11.7487 8.93655 11.1388 9.54101 10.5272 10.143C10.1951 10.47 9.88272 10.4692 9.54646 10.1414C8.96376 9.57346 8.38189 9.00389 7.80002 8.43594C7.7514 8.38807 7.7003 8.34345 7.66074 8.30694C5.78243 10.1568 3.91897 11.9905 2.04891 13.8314ZM1.17857 12.9503C3.03957 11.1183 4.90551 9.28219 6.77722 7.43879C4.93271 5.6384 3.07006 3.82015 1.17857 1.97351C1.17857 5.67491 1.17857 9.32438 1.17857 12.9503ZM13.2882 7.47287C15.1402 9.29598 16.9937 11.1207 18.8094 12.9081C18.8094 9.32032 18.8094 5.66923 18.8094 2.0368C16.9566 3.86153 15.1039 5.68545 13.2882 7.47287Z" fill="#FF1C9B"/>
</svg>
