<svg width="12" height="12" viewBox="0 0 12 12" fill="none" xmlns="http://www.w3.org/2000/svg">
<path d="M3.3366 9.73571C3.3366 9.61841 3.3366 9.55218 3.3366 9.48652C3.3366 6.56302 3.33598 3.63953 3.33785 0.716038C3.33785 0.61726 3.34285 0.514554 3.37348 0.420827C3.46409 0.143014 3.7622 -0.0281642 4.0778 0.00382638C4.38777 0.0352557 4.63963 0.267609 4.66713 0.551034C4.67275 0.606597 4.67025 0.663282 4.67025 0.719406C4.67025 4.2423 4.67025 7.76576 4.66963 11.2887C4.66963 11.3633 4.674 11.4407 4.6565 11.5126C4.59713 11.7517 4.43715 11.9144 4.17029 11.9773C3.89406 12.043 3.66158 11.9638 3.48097 11.7708C3.06037 11.3218 2.64478 10.8694 2.22731 10.4182C1.54299 9.67902 0.857417 8.94099 0.175594 8.20072C-0.0243904 7.98352 -0.0550131 7.72591 0.0912258 7.50422C0.23559 7.2859 0.454323 7.18151 0.736802 7.20396C0.95866 7.22136 1.1149 7.33865 1.25301 7.48907C1.88984 8.1822 2.53104 8.87196 3.17099 9.56284C3.21099 9.60662 3.25286 9.64871 3.3366 9.73571Z" fill="#757575"/>
<path d="M8.67147 2.26025C8.67147 2.38316 8.67147 2.44939 8.67147 2.51618C8.67147 5.4335 8.67147 8.35025 8.67085 11.2676C8.67085 11.3484 8.67522 11.4315 8.65835 11.51C8.59523 11.812 8.28338 12.023 7.94778 11.9972C7.62093 11.9719 7.35907 11.7278 7.3397 11.427C7.33657 11.377 7.33845 11.3271 7.33845 11.2771C7.33845 7.76039 7.33845 4.24367 7.33907 0.72695C7.33907 0.646131 7.33407 0.562507 7.35345 0.484494C7.41282 0.245407 7.57531 0.0843312 7.84154 0.0220337C8.10964 -0.040825 8.339 0.0326973 8.51523 0.218467C8.86708 0.588885 9.21018 0.965476 9.55703 1.33982C10.3126 2.1553 11.07 2.96966 11.8219 3.78738C12.1631 4.15836 11.9912 4.67302 11.4925 4.78134C11.1975 4.84532 10.9675 4.73981 10.7788 4.53495C10.137 3.8379 9.49078 3.14308 8.84646 2.44771C8.80271 2.4 8.75772 2.3523 8.67147 2.26025Z" fill="#757575"/>
</svg>
