<svg width="15" height="17" viewBox="0 0 15 17" fill="none" xmlns="http://www.w3.org/2000/svg">
<path d="M4.22638 13.7922C4.22638 13.6261 4.22638 13.5323 4.22638 13.4392C4.22638 9.29762 4.22559 5.156 4.22796 1.01439C4.22796 0.874452 4.2343 0.728951 4.27309 0.596171C4.38787 0.202603 4.76547 -0.0398993 5.16523 0.0054207C5.55787 0.0499456 5.87689 0.379112 5.91172 0.780632C5.91884 0.859345 5.91567 0.939649 5.91567 1.01916C5.91567 6.00993 5.91567 11.0015 5.91488 15.9923C5.91488 16.098 5.92042 16.2077 5.89826 16.3095C5.82306 16.6482 5.6204 16.8788 5.28239 16.9678C4.9325 17.0609 4.63802 16.9487 4.40924 16.6752C3.87649 16.0392 3.35007 15.3983 2.82127 14.7591C1.95446 13.7119 1.08607 12.6664 0.22242 11.6177C-0.0308946 11.31 -0.0696835 10.945 0.115553 10.631C0.298415 10.3217 0.575478 10.1738 0.933286 10.2056C1.21431 10.2303 1.41221 10.3964 1.58715 10.6095C2.3938 11.5914 3.206 12.5686 4.0166 13.5474C4.06727 13.6094 4.1203 13.669 4.22638 13.7922Z" fill="#FF1C9B"/>
<path d="M10.7843 3.20203C10.7843 3.37615 10.7843 3.46997 10.7843 3.56459C10.7843 7.69745 10.7843 11.8295 10.7836 15.9624C10.7836 16.0769 10.7891 16.1946 10.7677 16.3059C10.6878 16.7336 10.2928 17.0326 9.86766 16.996C9.45365 16.9602 9.12197 16.6144 9.09743 16.1882C9.09347 16.1174 9.09584 16.0467 9.09584 15.9759C9.09584 10.9939 9.09584 6.01187 9.09663 1.02985C9.09663 0.915352 9.0903 0.796884 9.11484 0.686367C9.19004 0.34766 9.39586 0.119469 9.73309 0.0312145C10.0727 -0.0578354 10.3632 0.0463211 10.5864 0.309495C11.0321 0.834253 11.4667 1.36776 11.9061 1.89808C12.8631 3.05334 13.8225 4.20702 14.7748 5.36546C15.2071 5.89101 14.9894 6.62011 14.3577 6.77356C13.984 6.8642 13.6927 6.71473 13.4537 6.42452C12.6407 5.43702 11.8221 4.4527 11.006 3.46759C10.9506 3.4 10.8936 3.33242 10.7843 3.20203Z" fill="#FF1C9B"/>
</svg>
