<svg width="18" height="17" viewBox="0 0 18 17" fill="none" xmlns="http://www.w3.org/2000/svg">
<path d="M9.38889 0C9.79173 0.0877394 10.1979 0.163071 10.5965 0.264991C12.4489 0.739138 14.0241 1.65198 15.341 2.96719C16.5476 4.1725 17.3622 5.58297 17.8162 7.18267C17.8837 7.42151 17.939 7.66346 18 7.90364C18 7.92579 18 7.94795 18 7.97011C17.5465 8.04721 17.0935 8.12431 16.6513 8.19965C15.7002 4.36747 13.1988 2.07207 9.10423 1.28286C9.16192 0.870304 9.22288 0.435152 9.28385 0C9.31902 0 9.35419 0 9.38889 0Z" fill="#FF1C9B"/>
<path d="M12.7103 17C11.7804 16.9778 10.8602 16.7545 9.97907 16.3925C6.47685 14.9536 3.76296 12.6538 1.74782 9.60684C1.01624 8.5008 0.442227 7.32208 0.131773 6.04232C-0.0159503 5.43258 -0.0614398 4.81707 0.11067 4.20334C0.199304 3.88739 0.370007 3.61132 0.614336 3.37912C1.08096 2.93555 1.5471 2.49198 2.02123 2.0555C2.4175 1.69036 2.87943 1.50557 3.42343 1.72182C3.6279 1.80336 3.82252 1.93541 3.98243 2.08253C4.6704 2.71576 5.34477 3.36184 6.02195 4.0057C6.34695 4.31501 6.57533 4.66463 6.50499 5.12682C6.45528 5.45562 6.25737 5.70643 6.01867 5.93287C5.6224 6.30953 5.2219 6.68264 4.82422 7.05797C4.61225 7.25827 4.6099 7.30346 4.73465 7.56757C5.18814 8.5265 5.88361 9.3228 6.62832 10.0845C7.366 10.8396 8.17778 11.5154 9.10117 12.0631C9.41725 12.2505 9.75818 12.4008 10.0865 12.57C10.2468 12.6525 10.3631 12.5864 10.4748 12.4801C10.887 12.087 11.2997 11.6944 11.7152 11.3045C11.9548 11.0794 12.2198 10.8955 12.5706 10.8511C12.9298 10.8055 13.2393 10.9088 13.5174 11.1144C13.6093 11.1822 13.6961 11.2575 13.7791 11.3355C14.4431 11.9603 15.1058 12.5864 15.7684 13.2117C15.987 13.4177 16.1713 13.646 16.2379 13.9371C16.3232 14.308 16.2308 14.6545 15.964 14.9257C15.442 15.4561 14.9079 15.9773 14.3512 16.4749C13.9094 16.8697 13.3462 16.9991 12.7103 17Z" fill="#FF1C9B"/>
<path d="M8.91309 4.69175C8.97687 4.26325 9.03924 3.84272 9.10161 3.42263C11.3428 3.6083 13.8607 5.44152 14.3409 8.20399C13.8944 8.2771 13.4475 8.34978 12.9874 8.42511C12.481 6.36279 11.1289 5.12026 8.91309 4.69175Z" fill="#FF1C9B"/>
</svg>
