<svg width="12" height="15" viewBox="0 0 12 15" fill="none" xmlns="http://www.w3.org/2000/svg">
<path d="M3.33686 11.7453C3.33686 11.6085 3.33686 11.5312 3.33686 11.4546C3.33686 8.04396 3.33623 4.63329 3.33811 1.22262C3.33811 1.10738 3.34311 0.987557 3.37373 0.878212C3.46436 0.554103 3.76248 0.3544 4.07811 0.391721C4.38811 0.428388 4.63998 0.699461 4.66748 1.03012C4.67311 1.09494 4.67061 1.16107 4.67061 1.22655C4.67061 5.3365 4.67061 9.44712 4.66998 13.5571C4.66998 13.6442 4.67436 13.7345 4.65686 13.8183C4.59748 14.0973 4.43748 14.2871 4.17061 14.3605C3.89436 14.4371 3.66186 14.3448 3.48123 14.1195C3.06061 13.5957 2.64498 13.068 2.22748 12.5415C1.54311 11.6792 0.857483 10.8182 0.175608 9.95456C-0.0243923 9.70117 -0.0550172 9.40063 0.0912327 9.142C0.235608 8.88729 0.454358 8.76551 0.736858 8.7917C0.958733 8.812 1.11498 8.94884 1.25311 9.12432C1.88998 9.93295 2.53123 10.7377 3.17123 11.5437C3.21123 11.5947 3.25311 11.6439 3.33686 11.7453Z" fill="#9FA0A0"/>
<path d="M8.67157 3.02387C8.67157 3.16726 8.67157 3.24453 8.67157 3.32244C8.67157 6.72591 8.67157 10.1287 8.67095 13.5322C8.67095 13.6265 8.67532 13.7234 8.65845 13.815C8.59532 14.1673 8.28345 14.4135 7.94782 14.3834C7.62095 14.3539 7.35907 14.0691 7.3397 13.7181C7.33657 13.6599 7.33845 13.6016 7.33845 13.5433C7.33845 9.44056 7.33845 5.33781 7.33907 1.23505C7.33907 1.14077 7.33407 1.04321 7.35345 0.952194C7.41282 0.673265 7.57532 0.485347 7.84157 0.412668C8.1097 0.339335 8.33907 0.425109 8.51532 0.641836C8.8672 1.07398 9.21032 1.51333 9.5572 1.95006C10.3128 2.90143 11.0703 3.85149 11.8222 4.80548C12.1634 5.23828 11.9916 5.8387 11.4928 5.96507C11.1978 6.03972 10.9678 5.91662 10.7791 5.67763C10.1372 4.86441 9.49095 4.05381 8.84657 3.24256C8.80282 3.18691 8.75782 3.13125 8.67157 3.02387Z" fill="#9FA0A0"/>
</svg>
