<svg width="18" height="14" viewBox="0 0 18 14" fill="none" xmlns="http://www.w3.org/2000/svg">
<path d="M0 12.5645C0 8.85602 0 5.14681 0 1.43837C0.0074176 1.42247 0.0200275 1.40656 0.0222528 1.3899C0.131292 0.590206 0.810744 -0.0148676 1.68083 0.000278175C2.37808 0.0123948 3.07534 0.00255004 3.77259 0.00255004C7.95612 0.00255004 12.1389 0.00179275 16.3224 0.00330733C17.3001 0.00330733 17.9958 0.68411 17.9966 1.66253C18.0018 5.22179 18.0018 8.78104 17.9914 12.3395C17.9907 12.5879 17.9313 12.8568 17.8267 13.0809C17.5271 13.7239 16.9908 14.0003 16.3046 14.0003C11.4357 13.9995 6.5668 14.0003 1.69789 14.0003C1.65709 14.0003 1.61555 14.001 1.57476 13.9995C1.06739 13.976 0.64904 13.7754 0.330083 13.3642C0.14761 13.1271 0.0667584 12.85 0 12.5645ZM1.81212 1.08699C4.23545 3.53909 6.62911 5.96241 8.9931 8.35469C11.3823 5.91698 13.7559 3.49517 16.1155 1.08699C11.3831 1.08699 6.61873 1.08699 1.81212 1.08699ZM1.84402 12.9098C6.61947 12.9098 11.3875 12.9098 16.1147 12.9098C14.4577 11.218 12.7872 9.51183 11.1064 7.79581C10.5738 8.34106 10.0249 8.90524 9.47451 9.46715C9.17558 9.77233 8.89445 9.77158 8.59181 9.46563C8.06739 8.93553 7.5437 8.40391 7.02002 7.87381C6.97626 7.82913 6.93027 7.78748 6.89466 7.7534C5.20419 9.48002 3.52707 11.1915 1.84402 12.9098ZM1.06072 12.0874C2.73561 10.3774 4.41496 8.66366 6.0995 6.9431C4.43944 5.26268 2.76306 3.56559 1.06072 1.842C1.06072 5.29676 1.06072 8.70304 1.06072 12.0874ZM11.9594 6.97491C13.6261 8.67654 15.2944 10.3797 16.9285 12.048C16.9285 8.69926 16.9285 5.29146 16.9285 1.90107C15.261 3.60422 13.5935 5.3066 11.9594 6.97491Z" fill="#9FA0A0"/>
</svg>
