<svg width="16" height="12" viewBox="0 0 16 12" fill="none" xmlns="http://www.w3.org/2000/svg">
<path d="M0 10.7692C0 7.59062 0 4.41141 0 1.23285C0.00659343 1.21922 0.0178022 1.20559 0.0197803 1.19131C0.116704 0.505874 0.720661 -0.0127432 1.49407 0.000238428C2.11385 0.0106238 2.73363 0.00218568 3.35342 0.00218568C7.07211 0.00218568 10.7901 0.00153659 14.5088 0.00283476C15.3778 0.00283476 15.9963 0.586361 15.997 1.42498C16.0016 4.47567 16.0016 7.52636 15.9924 10.5764C15.9917 10.7893 15.9389 11.0197 15.846 11.2119C15.5796 11.7629 15.1029 11.9998 14.493 11.9998C10.1651 11.9992 5.83716 11.9998 1.50924 11.9998C1.47297 11.9998 1.43605 12.0005 1.39978 11.9992C0.948794 11.9791 0.576925 11.8071 0.293407 11.4546C0.131209 11.2514 0.0593408 11.0139 0 10.7692ZM1.61077 0.931673C3.76485 3.0334 5.89254 5.11047 7.99387 7.16092C10.1176 5.07152 12.2275 2.99576 14.3249 0.931673C10.1183 0.931673 5.88331 0.931673 1.61077 0.931673ZM1.63913 11.0652C5.88397 11.0652 10.1222 11.0652 14.3242 11.0652C12.8512 9.61511 11.3664 8.15272 9.87234 6.6819C9.39893 7.14924 8.91102 7.63281 8.42178 8.11443C8.15607 8.37601 7.90618 8.37536 7.63717 8.11313C7.17101 7.65877 6.70551 7.20311 6.24002 6.74876C6.20112 6.71046 6.16024 6.67476 6.12859 6.64555C4.62595 8.12546 3.13517 9.59239 1.63913 11.0652ZM0.94286 10.3603C2.43166 8.89462 3.92441 7.42575 5.42177 5.95103C3.94617 4.51072 2.45605 3.05612 0.94286 1.57881C0.94286 4.53993 0.94286 7.4595 0.94286 10.3603ZM10.6306 5.97829C12.1121 7.43678 13.595 8.89657 15.0475 10.3265C15.0475 7.45626 15.0475 4.53538 15.0475 1.62944C13.5653 3.08922 12.0831 4.54836 10.6306 5.97829Z" fill="#757575"/>
</svg>
