<svg width="12" height="14" viewBox="0 0 12 14" fill="none" xmlns="http://www.w3.org/2000/svg">
<path d="M3.3366 11.3573C3.3366 11.2204 3.3366 11.1432 3.3366 11.0666C3.3366 7.65616 3.33598 4.24573 3.33785 0.835302C3.33785 0.720071 3.34285 0.600258 3.37348 0.49092C3.46409 0.166834 3.7622 -0.0328553 4.0778 0.0044637C4.38777 0.0411279 4.63963 0.312181 4.66713 0.642814C4.67275 0.707631 4.67025 0.773758 4.67025 0.83923C4.67025 4.9489 4.67025 9.05922 4.66963 13.1689C4.66963 13.256 4.674 13.3463 4.6565 13.4301C4.59713 13.709 4.43715 13.8989 4.17029 13.9722C3.89406 14.0488 3.66158 13.9565 3.48097 13.7313C3.06037 13.2075 2.64478 12.6798 2.22731 12.1534C1.54299 11.2912 0.857418 10.4302 0.175594 9.56663C-0.0243904 9.31325 -0.0550131 9.01274 0.0912258 8.75412C0.23559 8.49944 0.454323 8.37766 0.736802 8.40385C0.95866 8.42414 1.1149 8.56098 1.25301 8.73645C1.88984 9.54502 2.53104 10.3497 3.17099 11.1556C3.21099 11.2067 3.25286 11.2558 3.3366 11.3573Z" fill="#757575"/>
<path d="M8.67186 2.63672C8.67186 2.7801 8.67186 2.85736 8.67186 2.93527C8.67186 6.3385 8.67186 9.74107 8.67124 13.1443C8.67124 13.2386 8.67561 13.3355 8.65874 13.4271C8.59562 13.7794 8.28377 14.0255 7.94817 13.9954C7.62132 13.966 7.35946 13.6812 7.34009 13.3302C7.33697 13.272 7.33884 13.2137 7.33884 13.1554C7.33884 9.05296 7.33884 4.9505 7.33947 0.84803C7.33947 0.753751 7.33447 0.656198 7.35384 0.565192C7.41321 0.286282 7.5757 0.0983774 7.84193 0.0257037C8.11003 -0.0476248 8.33939 0.0381433 8.51563 0.254855C8.86747 0.686969 9.21057 1.12629 9.55742 1.56298C10.313 2.51429 11.0704 3.46429 11.8222 4.41821C12.1635 4.85098 11.9916 5.45136 11.4929 5.57772C11.1979 5.65235 10.9679 5.52927 10.7792 5.2903C10.1374 4.47714 9.49118 3.66659 8.84685 2.8554C8.8031 2.79975 8.75811 2.74409 8.67186 2.63672Z" fill="#757575"/>
</svg>
