<svg width="16" height="16" viewBox="0 0 16 16" fill="none" xmlns="http://www.w3.org/2000/svg">
<path d="M0 4.02056C0.0435991 3.91219 0.0889778 3.75744 0.164609 3.61964C0.613947 2.80085 1.18252 2.0668 1.81381 1.38537C2.18619 0.983554 2.59504 0.612959 3.01101 0.255297C3.57913 -0.233033 4.15259 0.0595189 4.44667 0.462669C5.19719 1.49061 5.89434 2.55513 6.4282 3.71686C6.5065 3.88722 6.56167 4.06962 6.61728 4.24934C6.70804 4.54279 6.65421 4.82062 6.45445 5.04672C6.26048 5.26658 6.03892 5.46192 5.8236 5.66171C5.67723 5.79773 5.52597 5.92973 5.36803 6.05148C5.27505 6.12283 5.2706 6.18928 5.30842 6.29319C5.8405 7.75283 6.73874 8.93151 8.00533 9.82656C8.53831 10.2029 9.11355 10.4995 9.72839 10.7207C9.83383 10.7586 9.89656 10.747 9.96863 10.6574C10.1533 10.4282 10.345 10.2038 10.543 9.98576C10.6769 9.83815 10.817 9.69321 10.9701 9.56656C11.1979 9.37792 11.4621 9.32485 11.7517 9.40467C12.3466 9.56879 12.8822 9.86402 13.4018 10.1824C14.0874 10.6025 14.7565 11.0512 15.4301 11.4909C15.6739 11.6501 15.847 11.8677 15.9453 12.1469C16.0262 12.377 16.0254 12.5987 15.8883 12.8011C15.7362 13.0259 15.5854 13.256 15.4021 13.4545C14.5692 14.3589 13.6132 15.113 12.5819 15.7802C12.1739 16.0442 11.7669 16.0317 11.3247 15.9425C9.86141 15.6468 8.53564 15.026 7.29796 14.2135C4.79546 12.5715 2.77477 10.4634 1.29774 7.84737C0.737626 6.856 0.313647 5.80754 0.0987654 4.68282C0.06006 4.48169 0.0378156 4.27699 0 4.02056ZM3.61339 1.10396C3.57112 1.1334 3.55644 1.14143 3.54443 1.15257C2.61995 1.99544 1.81648 2.94133 1.14248 3.99648C1.10555 4.05401 1.09398 4.14276 1.10377 4.21277C1.23457 5.16535 1.55978 6.05638 2.00378 6.90059C3.55911 9.85643 5.80803 12.1456 8.69313 13.8063C9.65454 14.3598 10.6773 14.7709 11.7851 14.9293C11.8723 14.9418 11.9831 14.9145 12.0583 14.8668C12.8328 14.3723 13.546 13.7979 14.2058 13.1583C14.4433 12.9278 14.6689 12.6847 14.9087 12.4386C14.833 12.3797 14.7783 12.3338 14.72 12.2914C13.7787 11.6091 12.7821 11.0195 11.734 10.5165C11.5983 10.4514 11.5249 10.4683 11.4301 10.5807C11.1289 10.937 10.8144 11.2813 10.5087 11.6336C10.2885 11.8878 10.0322 11.9275 9.71415 11.8338C8.52007 11.4824 7.47547 10.8683 6.56211 10.0339C5.44055 9.00955 4.63797 7.77602 4.19886 6.31058C4.10099 5.98458 4.14726 5.72459 4.4044 5.50027C4.58814 5.33972 4.76343 5.16892 4.94583 5.00659C5.10777 4.86254 5.26838 4.71671 5.4401 4.58515C5.5709 4.48481 5.57713 4.3916 5.49794 4.25246C5.06951 3.50012 4.65621 2.73931 4.22066 1.99143C4.04182 1.68505 3.82115 1.40454 3.61339 1.10396Z" fill="#757575"/>
</svg>
