<svg width="20" height="20" viewBox="0 0 20 20" fill="none" xmlns="http://www.w3.org/2000/svg">
<path d="M0 10.5892C0 10.1987 0 9.80767 0 9.41715C0.0122279 9.34814 0.0264123 9.27963 0.0357056 9.21063C0.0831499 8.84996 0.11103 8.48537 0.179017 8.12812C0.557594 6.13585 1.46393 4.41421 2.88873 2.97494C4.38249 1.46569 6.17755 0.515807 8.27439 0.154155C8.65102 0.0890673 9.03253 0.0508956 9.41159 0C9.80191 0 10.1927 0 10.583 0C10.6398 0.0112558 10.6965 0.0249584 10.7532 0.0337673C11.2986 0.11843 11.8528 0.163942 12.3879 0.29216C17.5187 1.52148 20.8242 6.67955 19.82 11.8719C19.4028 14.0305 18.3947 15.8706 16.7718 17.349C14.4563 19.4583 11.7202 20.2995 8.6202 19.9056C6.64564 19.6545 4.90536 18.8436 3.41355 17.5252C1.65664 15.9724 0.557104 14.0403 0.153094 11.7236C0.0880411 11.3482 0.0503791 10.9675 0 10.5892ZM7.57838 11.1349C5.46295 9.51013 5.42724 6.64628 7.04427 4.97406C8.59281 3.37232 11.1357 3.2764 12.8251 4.8434C14.4065 6.31007 14.7464 9.38191 12.4226 11.1422C13.4522 11.4995 14.3654 12.0353 15.1592 12.767C15.9511 13.4971 16.5586 14.3614 16.9983 15.3563C19.6664 11.9052 19.485 6.70941 15.9266 3.47264C12.4143 0.277968 7.03448 0.428697 3.73294 3.79025C0.325263 7.25996 0.577158 12.3016 2.9978 15.3455C3.92908 13.3038 5.45072 11.9037 7.57838 11.1349ZM10.0729 18.8387C10.2944 18.8255 10.6011 18.8201 10.9044 18.7868C12.8697 18.5705 14.5762 17.7856 16.0225 16.4378C16.0651 16.3982 16.0949 16.2978 16.0763 16.245C15.5544 14.772 14.6324 13.6107 13.2815 12.8301C11.2849 11.6766 9.21399 11.5944 7.13964 12.5986C5.57789 13.3547 4.51357 14.5914 3.92517 16.2288C3.90413 16.2871 3.92957 16.3972 3.97408 16.4388C5.67034 18.0107 7.67914 18.802 10.0729 18.8387ZM12.9259 7.81541C12.9264 6.2029 11.6048 4.88206 9.99315 4.885C8.38885 4.88744 7.07508 6.19898 7.06921 7.80464C7.06285 9.41666 8.38004 10.7414 9.99217 10.7448C11.6033 10.7483 12.9254 9.42791 12.9259 7.81541Z" fill="#FF1C9B"/>
</svg>
