<svg width="20" height="11" viewBox="0 0 20 11" fill="none" xmlns="http://www.w3.org/2000/svg">
<path d="M19.9999 1.73013C19.6304 2.14791 19.2871 2.58989 18.8875 2.97864C16.3925 5.40576 13.8868 7.82158 11.3818 10.2385C10.3257 11.2574 9.67529 11.2536 8.60861 10.2245C6.01101 7.71942 3.41453 5.21219 0.821946 2.70227C0.602925 2.48988 0.379446 2.26835 0.219499 2.0151C-0.138848 1.44892 -0.0491214 0.886496 0.420687 0.428387C0.916688 -0.0555313 1.52359 -0.115752 2.12938 0.239121C2.39187 0.3929 2.61647 0.614427 2.8366 0.825738C5.01232 2.92057 7.18358 5.02023 9.35763 7.11721C9.55547 7.30809 9.76502 7.48768 10.0799 7.77265C10.587 7.24411 11.0468 6.73653 11.5384 6.25853C13.4287 4.42125 15.3269 2.5915 17.2257 0.762828C18.347 -0.316847 19.1227 -0.254475 20.0005 0.975752C19.9999 1.22739 19.9999 1.47849 19.9999 1.73013Z" fill="#FF1C9B"/>
</svg>
