<svg width="18" height="18" viewBox="0 0 18 18" fill="none" xmlns="http://www.w3.org/2000/svg">
<path d="M2.39062 5.89359C2.4286 5.79921 2.46812 5.66444 2.53399 5.54442C2.92535 4.83131 3.42056 4.192 3.9704 3.59852C4.29472 3.24857 4.65082 2.92581 5.01312 2.61431C5.50794 2.18901 6.0074 2.4438 6.26353 2.79492C6.91721 3.69019 7.5244 4.6173 7.98938 5.62909C8.05758 5.77746 8.10563 5.93632 8.15406 6.09284C8.23311 6.34841 8.18623 6.59039 8.01225 6.78731C7.8433 6.97879 7.65033 7.14891 7.46279 7.32291C7.33531 7.44138 7.20357 7.55634 7.06601 7.66238C6.98502 7.72452 6.98115 7.78239 7.01409 7.87289C7.47752 9.14413 8.25985 10.1707 9.36302 10.9502C9.82722 11.278 10.3282 11.5363 10.8637 11.7289C10.9556 11.762 11.0102 11.7519 11.073 11.6738C11.2338 11.4742 11.4008 11.2788 11.5732 11.0889C11.6899 10.9603 11.8119 10.8341 11.9452 10.7238C12.1436 10.5595 12.3738 10.5132 12.626 10.5828C13.1441 10.7257 13.6106 10.9828 14.0632 11.2601C14.6603 11.626 15.2431 12.0168 15.8297 12.3997C16.0421 12.5384 16.1928 12.7279 16.2784 12.9711C16.349 13.1715 16.3482 13.3645 16.2288 13.5408C16.0963 13.7366 15.965 13.937 15.8053 14.1099C15.08 14.8975 14.2473 15.5543 13.3491 16.1354C12.9937 16.3653 12.6392 16.3544 12.254 16.2768C10.9796 16.0192 9.8249 15.4786 8.74692 14.7709C6.56732 13.3408 4.80736 11.5048 3.52092 9.22647C3.03307 8.36305 2.6638 7.44992 2.47665 6.47037C2.44294 6.2952 2.42356 6.11692 2.39062 5.89359ZM5.53777 3.35344C5.50096 3.37908 5.48817 3.38607 5.47771 3.39578C4.67252 4.12986 3.97272 4.95366 3.38568 5.87262C3.35352 5.92272 3.34345 6.00002 3.35197 6.06099C3.46589 6.89062 3.74914 7.66665 4.13585 8.40189C5.4905 10.9762 7.44923 12.9699 9.96207 14.4163C10.7994 14.8983 11.6902 15.2564 12.6551 15.3943C12.731 15.4052 12.8275 15.3815 12.893 15.3399C13.5676 14.9092 14.1887 14.4089 14.7634 13.852C14.9703 13.6512 15.1668 13.4395 15.3756 13.2251C15.3097 13.1738 15.2621 13.1338 15.2113 13.0969C14.3914 12.5026 13.5234 11.9892 12.6105 11.5511C12.4923 11.4944 12.4284 11.5091 12.3459 11.607C12.0835 11.9173 11.8096 12.2172 11.5434 12.524C11.3516 12.7454 11.1284 12.78 10.8513 12.6984C9.81133 12.3923 8.90152 11.8575 8.10602 11.1308C7.12917 10.2386 6.43015 9.16433 6.0477 7.88804C5.96245 7.60412 6.00275 7.37768 6.22672 7.18231C6.38675 7.04249 6.53942 6.89373 6.69829 6.75235C6.83933 6.6269 6.97921 6.49989 7.12878 6.38531C7.2427 6.29792 7.24813 6.21674 7.17915 6.09556C6.80601 5.44033 6.44603 4.77771 6.06669 4.12636C5.91092 3.85953 5.71873 3.61523 5.53777 3.35344Z" fill="white"/>
<path d="M15.8594 8.89896C15.5514 8.89896 15.2534 8.89896 14.9418 8.89896C14.9101 7.50149 14.4292 6.28734 13.4415 5.29536C12.453 4.30222 11.2437 3.81555 9.83984 3.78293C9.83984 3.47725 9.83984 3.17508 9.83984 2.87329C12.88 2.79017 15.8606 5.37305 15.8594 8.89896Z" fill="white"/>
<path d="M9.83789 6.10736C9.83789 5.80014 9.83789 5.50185 9.83789 5.20316C11.5482 5.10101 13.5384 6.61773 13.5391 8.90347C13.3876 8.90347 13.235 8.90347 13.0823 8.90347C12.9331 8.90347 12.7839 8.90347 12.6216 8.90347C12.5976 8.13482 12.3372 7.47027 11.7955 6.92922C11.2572 6.39129 10.5993 6.12989 9.83789 6.10736Z" fill="white"/>
</svg>
