<svg width="11" height="9" viewBox="0 0 11 9" fill="none" xmlns="http://www.w3.org/2000/svg">
<path d="M5.51722 0.750595C5.75911 0.750595 5.91828 0.888014 5.99387 1.16203L6.74307 4.13094H8.46825L9.24013 1.03983C9.27037 0.913935 9.32706 0.830413 9.41021 0.789681C9.49336 0.748949 9.58408 0.739486 9.68277 0.761704C9.79615 0.791327 9.8814 0.843168 9.9381 0.917226C9.99479 0.991284 10.0045 1.09167 9.96665 1.21757L9.20611 4.13094H10.2846C10.3677 4.13094 10.4244 4.15686 10.4546 4.20871C10.4849 4.26055 10.5 4.3272 10.5 4.40866C10.5 4.48272 10.4849 4.54608 10.4546 4.59751C10.4244 4.64935 10.3677 4.67527 10.2846 4.67527H9.07005L8.12809 8.33375C8.09029 8.48228 8.02604 8.58761 7.93533 8.65056C7.84462 8.71351 7.74593 8.74519 7.6401 8.74519C7.53385 8.74519 7.436 8.71392 7.34487 8.65056C7.25416 8.58761 7.1899 8.48187 7.15211 8.33375L6.23282 4.67527H4.7802L3.83823 8.33375C3.80044 8.48228 3.73618 8.58761 3.64547 8.65056C3.55476 8.71351 3.45607 8.74519 3.35024 8.74519C3.24399 8.74519 3.14615 8.71392 3.05501 8.65056C2.9643 8.58761 2.90005 8.48187 2.86225 8.33375L1.90895 4.67527H0.727197C0.644045 4.67527 0.585251 4.64935 0.551235 4.59751C0.517218 4.54567 0.5 4.48272 0.5 4.40866C0.5 4.3272 0.517218 4.26055 0.551235 4.20871C0.585251 4.15686 0.643625 4.13094 0.727197 4.13094H1.77121L1.02201 1.21757C0.98421 1.09167 0.993449 0.991696 1.05056 0.917226C1.10726 0.843168 1.19251 0.791327 1.3059 0.761704C1.41173 0.739486 1.50454 0.748949 1.58391 0.789681C1.66328 0.830413 1.72207 0.913935 1.75987 1.03983L2.52041 4.13094H4.25693L5.04015 1.16203C5.1086 0.888014 5.26734 0.750595 5.51722 0.750595ZM4.12086 4.6761H2.6569L3.37208 7.55614L4.12086 4.6761ZM6.09592 4.13094L5.51722 1.84007L4.91584 4.13094H6.09592ZM8.3431 4.6761H6.89048L7.62834 7.54503L8.3431 4.6761Z" fill="white"/>
</svg>
