<svg width="16" height="18" viewBox="0 0 16 18" fill="none" xmlns="http://www.w3.org/2000/svg">
<path d="M12.0118 7.84369C12.0118 5.68259 12.0118 3.52149 12.0118 1.36039C12.0118 0.919262 12.1137 0.814488 12.5429 0.814488C13.1927 0.814488 13.8425 0.813998 14.4923 0.814488C14.8952 0.814488 15.0078 0.930033 15.0078 1.34277C15.0078 5.68308 15.0078 10.0239 15.0078 14.3642C15.0078 14.7578 14.8825 14.8871 14.5008 14.8871C13.8275 14.8876 13.1542 14.8881 12.4809 14.8866C12.1419 14.8861 12.0123 14.752 12.0123 14.3994C12.0114 12.2148 12.0118 10.0293 12.0118 7.84369ZM14.2472 14.0915C14.2472 9.91323 14.2472 5.75848 14.2472 1.60666C13.7444 1.60666 13.2556 1.60666 12.7706 1.60666C12.7706 5.77611 12.7706 9.93184 12.7706 14.0915C13.2673 14.0915 13.7523 14.0915 14.2472 14.0915Z" fill="white"/>
<path d="M8.25977 9.39955C8.25977 7.75057 8.25977 6.10159 8.25977 4.45311C8.25977 4.0673 8.38325 3.94 8.75652 3.93952C9.43591 3.93903 10.1153 3.93903 10.7947 3.93952C11.1238 3.94 11.2553 4.07367 11.2553 4.41492C11.2562 7.7491 11.2562 11.0838 11.2553 14.418C11.2553 14.7455 11.1196 14.8865 10.8046 14.887C10.1078 14.889 9.41056 14.889 8.71379 14.887C8.3964 14.886 8.26024 14.7382 8.25977 14.4008C8.25977 12.7337 8.25977 11.0666 8.25977 9.39955ZM9.01851 4.72777C9.01851 7.86122 9.01851 10.9717 9.01851 14.0885C9.51855 14.0885 10.0064 14.0885 10.4961 14.0885C10.4961 10.9619 10.4961 7.84653 10.4961 4.72777C9.99887 4.72777 9.51573 4.72777 9.01851 4.72777Z" fill="white"/>
<path d="M7.51457 10.9725C7.51457 12.0957 7.51457 13.2193 7.51457 14.3425C7.51457 14.7611 7.39297 14.8864 6.98918 14.8869C6.32199 14.8869 5.65434 14.8879 4.98715 14.8864C4.64675 14.8859 4.51012 14.7425 4.51012 14.3841C4.50965 12.1133 4.50965 9.84204 4.51012 7.57127C4.51012 7.20211 4.64393 7.06355 4.99983 7.06257C5.67875 7.06159 6.35815 7.0611 7.03707 7.06257C7.37794 7.06355 7.5141 7.20701 7.5141 7.56588C7.51504 8.70176 7.51457 9.83714 7.51457 10.9725ZM5.27637 7.85964C5.27637 9.94828 5.27637 12.0149 5.27637 14.0835C5.775 14.0835 6.26236 14.0835 6.74691 14.0835C6.74691 12.0012 6.74691 9.93457 6.74691 7.85964C6.25297 7.85964 5.76984 7.85964 5.27637 7.85964Z" fill="white"/>
<path d="M0.766132 12.526C0.766132 11.9101 0.765193 11.2937 0.766602 10.6778C0.767071 10.3301 0.890555 10.1979 1.21875 10.1975C1.91505 10.1955 2.61134 10.1955 3.30717 10.1975C3.63443 10.1984 3.76214 10.3345 3.76214 10.6778C3.76261 11.916 3.76261 13.1546 3.76214 14.3928C3.76214 14.7419 3.62738 14.8864 3.29872 14.8869C2.60853 14.8883 1.91786 14.8883 1.22767 14.8869C0.900415 14.8864 0.767541 14.7488 0.766602 14.411C0.764724 13.7828 0.766132 13.1542 0.766132 12.526ZM1.51877 14.0859C2.0221 14.0859 2.5104 14.0859 3.00292 14.0859C3.00292 13.044 3.00292 12.0158 3.00292 10.9867C2.50195 10.9867 2.01318 10.9867 1.51877 10.9867C1.51877 12.0222 1.51877 13.0464 1.51877 14.0859Z" fill="white"/>
</svg>
